<?xml version="1.0" encoding="UTF-8" standalone="no"?>
<svg
   version="1.0"
   width="434.18469pt"
   height="531.58594pt"
   viewBox="0 0 434.18469 531.58593"
   preserveAspectRatio="xMidYMid"
   id="svg26"
   xmlns="http://www.w3.org/2000/svg"
   xmlns:svg="http://www.w3.org/2000/svg">
  <defs
     id="defs30" />
  <g
     transform="matrix(0.01751451,0,0,-0.01751451,-47.464274,548.86085)"
     fill="#000000"
     stroke="none"
     id="g24"
     style="image-rendering:optimizeQuality">
    <path
       d="m 8960,31334 c -156,-20 -357,-81 -488,-149 -167,-86 -317,-218 -352,-309 -14,-38 0,-54 32,-38 42,20 205,24 315,8 128,-19 229,-53 356,-118 375,-193 546,-487 582,-1003 11,-160 35,-328 61,-425 49,-186 155,-349 262,-402 l 49,-24 -64,-80 c -88,-110 -200,-270 -274,-394 -35,-58 -104,-154 -154,-215 -178,-217 -358,-483 -459,-676 -148,-285 -306,-704 -360,-954 -203,-946 -219,-1979 -43,-2710 l 32,-130 3,-825 c 5,-1258 -17,-1682 -133,-2490 -24,-164 -139,-763 -151,-781 -3,-5 -43,-9 -88,-9 -114,0 -405,-17 -611,-36 -1119,-102 -2013,-394 -3211,-1049 -488,-268 -698,-399 -1010,-632 -297,-222 -544,-455 -544,-512 0,-35 22,-55 52,-48 13,4 75,43 138,87 105,74 442,290 550,353 58,34 289,73 510,88 316,20 757,-24 1102,-111 787,-199 1327,-481 1743,-911 110,-114 241,-267 251,-294 3,-6 -68,-179 -156,-384 -373,-868 -564,-1412 -665,-1901 -43,-211 -62,-358 -76,-585 -13,-225 -2,-366 41,-518 38,-137 58,-178 93,-195 40,-19 53,-4 67,81 16,93 34,143 111,312 l 64,140 6,-185 c 4,-102 14,-227 23,-279 9,-51 15,-95 13,-97 -2,-3 -76,0 -163,5 -178,10 -502,-1 -600,-22 -127,-27 -255,-120 -518,-377 -321,-314 -554,-596 -679,-821 -42,-75 -46,-104 -16,-120 12,-6 103,-15 203,-20 99,-5 255,-16 346,-24 258,-25 448,-30 495,-14 37,13 41,19 87,123 63,144 100,204 173,278 148,150 328,246 526,280 64,11 68,10 178,-27 61,-21 118,-43 125,-49 7,-6 31,-81 52,-166 20,-85 57,-220 80,-300 23,-80 41,-146 39,-148 -2,-2 -66,12 -142,31 -221,57 -515,107 -623,107 -46,0 -50,-2 -57,-27 -5,-16 -8,-116 -7,-223 1,-222 35,-540 80,-739 64,-284 171,-576 262,-714 l 27,-40 -30,-21 c -374,-267 -645,-504 -806,-704 -193,-238 -329,-518 -376,-772 -27,-144 -24,-430 6,-570 37,-175 101,-319 193,-437 176,-224 503,-373 819,-373 h 69 v -55 c 0,-205 111,-447 284,-620 169,-169 361,-272 631,-339 257,-64 615,-65 934,-5 57,11 105,18 108,16 2,-3 -1,-41 -6,-86 -45,-358 -27,-875 34,-967 24,-36 56,-39 138,-11 l 75,25 6,-45 c 3,-25 6,-78 6,-118 v -72 l -49,-31 c -77,-50 -105,-94 -109,-173 -8,-143 80,-396 201,-573 88,-130 240,-265 332,-297 57,-19 59,-22 36,-67 -12,-23 -21,-57 -21,-76 0,-52 72,-182 165,-298 103,-128 341,-362 458,-449 168,-126 340,-199 466,-199 102,0 147,36 189,153 14,40 20,47 38,43 74,-19 220,-26 320,-16 216,22 569,162 891,354 228,136 293,194 293,262 0,30 2,31 48,37 69,8 252,72 367,128 55,26 141,79 191,117 l 91,68 22,-100 c 32,-143 156,-637 250,-996 44,-168 98,-381 121,-474 40,-165 41,-172 31,-255 -23,-191 -32,-407 -20,-475 13,-79 65,-165 130,-218 192,-154 412,-248 592,-251 142,-3 166,2 282,58 128,62 212,127 269,208 41,58 41,59 41,147 0,58 -4,93 -13,102 -6,6 -12,24 -12,38 0,41 -61,253 -145,505 l -77,230 12,220 c 10,195 19,268 86,670 41,247 86,522 99,610 31,205 74,647 82,838 4,88 10,150 17,155 6,5 47,21 91,37 44,16 161,61 259,101 l 180,73 46,-43 c 26,-24 99,-79 163,-121 65,-43 117,-81 117,-85 0,-3 -11,-21 -25,-40 -33,-44 -32,-90 0,-129 67,-79 449,-306 616,-365 89,-32 94,-35 101,-67 14,-72 87,-380 107,-450 29,-106 245,-973 275,-1108 44,-196 32,-436 -38,-720 -43,-172 -76,-364 -76,-436 0,-51 22,-97 72,-151 86,-94 239,-177 363,-199 177,-30 540,64 713,185 102,72 108,89 105,346 -2,222 -28,441 -65,547 -19,57 -21,75 -15,245 5,159 54,729 64,741 1,2 41,-15 88,-38 103,-51 285,-112 341,-114 60,-3 76,16 98,115 l 6,27 73,-53 c 136,-97 152,-101 377,-101 329,1 683,61 807,136 26,16 55,20 160,23 76,3 150,11 183,20 41,12 101,16 237,16 404,0 760,93 1194,311 141,70 377,207 509,294 l 96,63 75,-11 c 110,-15 177,4 342,97 223,126 410,281 503,416 72,105 72,137 0,326 -32,82 -82,204 -113,271 l -56,122 63,68 c 79,85 344,438 482,643 109,159 298,484 351,600 94,206 116,359 61,414 -8,9 -42,53 -76,98 -125,170 -481,509 -723,690 -176,132 -496,342 -690,454 -265,152 -1186,604 -1231,604 -6,0 -16,11 -22,24 -14,31 -167,217 -376,455 -236,270 -345,401 -546,656 -96,121 -228,287 -294,370 -67,82 -127,157 -134,167 -12,17 -4,29 80,121 182,198 326,383 418,540 25,42 47,77 50,77 8,0 200,-344 256,-460 66,-134 119,-260 206,-485 38,-99 75,-186 81,-194 7,-7 10,-24 9,-36 -4,-29 24,-40 54,-20 64,41 229,193 304,280 370,424 608,806 761,1225 l 38,105 v -190 c 1,-200 -14,-368 -49,-545 -26,-137 -40,-181 -85,-270 -34,-67 -35,-74 -20,-89 15,-15 18,-14 40,11 114,132 310,636 403,1038 87,376 121,639 129,994 6,256 6,258 25,235 47,-59 234,-348 313,-484 197,-336 360,-728 425,-1022 11,-51 20,-114 21,-140 1,-65 21,-118 44,-118 32,0 100,115 139,237 47,144 149,554 180,728 76,417 100,682 100,1105 0,354 -8,475 -55,765 -17,108 -72,345 -95,405 -8,23 167,-195 290,-360 259,-347 432,-620 581,-917 110,-220 174,-385 220,-568 9,-36 19,-72 22,-80 4,-8 7,-26 7,-39 1,-33 31,-51 51,-31 61,62 39,651 -41,1090 -57,311 -170,698 -299,1025 -35,88 -192,450 -350,805 -323,727 -379,856 -512,1194 -92,234 -93,239 -77,264 31,47 347,358 434,426 375,296 863,522 1478,685 394,105 666,150 1042,172 306,18 584,2 879,-51 113,-21 116,-22 300,-127 102,-58 279,-164 392,-234 113,-71 213,-129 222,-129 15,0 47,36 47,53 0,14 -119,134 -215,217 -240,206 -691,508 -1040,697 -216,117 -938,475 -1120,556 -1062,469 -1953,698 -3005,772 -118,9 -249,19 -290,23 l -75,7 -22,85 c -67,254 -251,1026 -307,1290 -116,543 -345,1727 -429,2213 l -35,198 19,82 c 50,229 84,641 69,840 -9,121 -27,220 -49,278 -8,24 -7,28 12,33 12,3 39,6 61,6 55,0 255,47 347,80 213,79 404,205 529,350 86,101 84,106 -47,112 -221,11 -523,114 -720,245 l -88,58 215,6 c 345,11 577,54 823,155 202,83 379,195 539,344 194,180 340,444 355,641 10,137 -2,148 -111,105 -123,-49 -212,-61 -451,-60 -244,1 -354,15 -559,75 -370,106 -796,340 -1177,645 -64,53 -65,54 -83,131 -56,239 -314,800 -547,1188 l -78,130 72,17 c 40,10 110,37 157,60 143,72 280,225 361,405 17,37 70,185 119,328 149,439 203,567 292,687 107,146 281,258 528,341 195,66 321,80 498,55 103,-14 112,-8 81,53 -49,98 -233,246 -418,339 -295,147 -629,193 -951,130 -181,-35 -332,-102 -481,-214 -192,-145 -294,-263 -385,-446 l -45,-90 -66,56 c -185,157 -445,285 -683,335 -149,31 -350,31 -475,1 -184,-45 -385,-172 -430,-271 -10,-23 -21,-40 -24,-38 -43,24 -248,118 -321,147 -298,119 -651,199 -955,216 -96,6 -119,11 -180,40 -148,69 -463,165 -686,209 -704,137 -1527,102 -2344,-101 -175,-44 -205,-53 -390,-124 -115,-44 -168,-59 -226,-64 -155,-13 -389,-61 -599,-121 -96,-28 -394,-140 -507,-191 -8,-4 -13,1 -13,10 0,33 -40,94 -90,139 -117,105 -274,151 -525,151 -247,1 -383,-34 -730,-191 -115,-52 -222,-97 -237,-100 -50,-10 -74,3 -88,48 -20,59 -111,211 -174,289 -55,67 -183,188 -269,252 -93,70 -257,140 -407,173 -73,16 -390,29 -470,19 z m 6536,-194 c 356,-28 623,-77 953,-177 179,-54 178,-55 -39,-73 -256,-20 -649,-98 -813,-160 -54,-20 -78,-42 -63,-57 3,-4 66,8 139,25 407,97 848,143 1178,123 499,-30 917,-153 1379,-407 165,-90 517,-331 685,-469 326,-268 639,-613 918,-1011 40,-58 54,-87 50,-102 -4,-17 1,-24 20,-31 65,-25 336,-515 540,-976 69,-157 137,-333 137,-356 0,-12 -253,205 -371,318 -47,46 -91,83 -98,83 -56,0 103,-174 419,-457 177,-159 294,-250 455,-357 346,-230 644,-372 948,-451 213,-55 260,-60 522,-60 260,0 347,11 467,60 39,16 58,20 58,12 0,-7 -9,-46 -21,-87 -27,-98 -105,-261 -170,-355 -133,-193 -381,-387 -635,-499 -263,-116 -500,-162 -884,-173 -236,-6 -396,5 -551,38 -118,26 -131,27 -136,11 -9,-26 151,-76 327,-103 66,-9 80,-15 115,-49 136,-129 361,-238 630,-305 61,-15 144,-31 185,-34 l 75,-6 -80,-68 c -104,-89 -177,-137 -300,-197 -321,-155 -624,-178 -1027,-76 -417,105 -980,424 -1304,738 -55,54 -106,98 -112,98 -27,0 -8,-39 51,-108 276,-324 927,-713 1352,-808 44,-9 84,-21 88,-24 12,-10 -10,-451 -28,-587 -47,-344 -208,-789 -421,-1159 -80,-140 -211,-336 -306,-456 -49,-63 -75,-104 -67,-107 7,-2 25,11 41,30 231,270 396,527 547,855 203,440 291,819 292,1247 v 169 l 27,-5 c 15,-4 86,-12 157,-18 130,-13 130,-13 131,-38 0,-14 6,-89 14,-166 20,-215 -4,-635 -49,-856 -10,-52 -28,-139 -40,-195 -55,-266 -193,-602 -369,-894 -272,-453 -601,-821 -973,-1086 -121,-87 -229,-157 -229,-150 0,2 16,28 36,57 38,57 136,246 174,339 18,42 52,84 145,180 172,177 231,260 184,260 -6,0 -56,-46 -112,-103 -217,-220 -532,-481 -748,-620 -290,-185 -627,-349 -999,-485 -269,-98 -514,-172 -526,-159 -3,2 30,30 71,61 100,75 267,237 374,361 170,197 377,492 509,723 65,114 76,128 163,201 215,180 292,293 227,335 -13,8 -45,18 -71,21 -39,6 -47,10 -41,24 30,71 130,374 158,482 113,427 158,806 159,1329 0,339 -14,509 -69,810 -61,335 -172,666 -210,628 -4,-4 12,-72 35,-150 101,-352 159,-748 168,-1153 10,-471 -31,-913 -119,-1290 l -21,-90 -19,82 c -52,239 -170,511 -285,662 -33,44 -34,47 -27,113 6,64 5,68 -14,68 -22,0 -21,1 -67,-155 -35,-121 -87,-266 -92,-261 -3,2 -24,62 -48,133 -101,300 -257,610 -471,936 -194,295 -366,506 -622,764 -159,160 -171,174 -177,217 -8,48 -26,73 -46,61 -8,-6 -9,-35 -5,-104 9,-119 -9,-509 -32,-696 l -17,-140 -23,85 c -36,128 -123,343 -226,555 -151,310 -304,559 -536,870 -283,381 -872,1007 -910,969 -7,-7 31,-52 103,-125 62,-62 160,-168 217,-234 58,-66 110,-124 116,-130 15,-14 225,-262 300,-355 446,-552 816,-1254 922,-1750 27,-124 52,-306 52,-376 v -55 l -57,39 c -417,281 -1074,566 -1604,697 -154,38 -225,48 -250,34 -38,-20 -120,-264 -145,-430 -9,-63 -17,-115 -18,-117 -2,-1 -27,62 -56,140 -105,284 -132,348 -145,348 -8,0 -17,-4 -20,-10 -7,-11 176,-577 253,-780 62,-165 156,-369 201,-435 36,-53 34,-54 -85,-25 -362,86 -816,405 -1115,782 -95,119 -224,328 -284,460 -70,153 -90,113 -81,-155 6,-160 22,-310 52,-481 l 7,-40 -69,38 c -211,116 -527,392 -706,616 -235,296 -426,660 -563,1076 -59,178 -96,334 -149,624 -54,293 -80,517 -73,622 4,59 2,78 -9,82 -62,24 -489,-674 -752,-1230 -183,-386 -300,-677 -416,-1034 -227,-693 -364,-1432 -368,-1975 l -1,-190 -24,95 c -57,232 -108,561 -135,875 -18,207 -18,1183 0,1400 25,304 54,524 93,708 14,67 18,102 11,109 -15,15 -27,-13 -56,-128 -153,-612 -181,-1782 -61,-2564 48,-313 134,-659 225,-910 23,-63 45,-139 49,-167 5,-37 15,-61 33,-80 15,-16 47,-71 71,-124 57,-122 182,-345 265,-474 153,-237 340,-444 534,-595 53,-41 95,-76 93,-78 -6,-6 -248,56 -366,93 -563,181 -1038,510 -1421,985 -58,72 -263,364 -334,477 -31,48 -77,132 -102,185 -43,89 -62,112 -76,90 -19,-31 81,-241 214,-451 l 103,-163 -6,-142 c -11,-227 -62,-517 -130,-736 l -23,-75 -7,155 c -12,323 -102,651 -281,1035 -25,54 -43,102 -40,107 3,5 1,14 -4,21 -21,25 -211,397 -250,487 -146,343 -265,713 -331,1026 -60,284 -85,494 -103,876 -30,654 73,1535 238,2033 62,187 171,451 265,637 92,183 255,426 452,671 137,171 541,587 677,697 153,124 146,117 133,131 -24,24 -189,-94 -399,-289 -154,-141 -151,-132 32,97 337,420 922,950 1399,1268 355,236 836,477 1198,600 235,79 511,139 756,163 134,13 510,13 682,0 158,-13 440,-53 557,-79 55,-13 84,-15 89,-8 31,51 -408,142 -812,167 -88,5 -180,10 -205,11 h -45 l 60,20 c 192,63 636,159 915,198 132,18 317,37 445,44 128,8 566,6 681,-3 z m -3542,-4466 c 67,-437 101,-600 162,-794 122,-386 318,-785 514,-1047 38,-51 68,-93 67,-93 -1,0 -40,7 -87,15 -124,23 -329,30 -443,16 -312,-40 -661,-200 -967,-445 -96,-77 -326,-304 -317,-313 4,-3 48,21 99,54 368,236 787,397 1195,458 153,23 405,36 553,28 l 135,-6 95,-87 c 200,-183 383,-316 518,-376 43,-19 85,-39 94,-44 23,-13 55,-13 63,0 3,5 -1,29 -9,53 -18,53 -51,269 -66,432 -6,66 -13,131 -16,145 -2,14 24,-29 58,-95 75,-142 104,-186 217,-325 157,-192 357,-373 556,-505 126,-83 356,-198 472,-235 126,-40 254,-52 283,-25 11,10 20,24 20,31 0,7 -26,60 -59,118 -32,58 -90,186 -129,283 l -71,178 9,170 c 5,94 16,204 24,245 17,77 83,289 95,302 7,8 358,-97 571,-169 230,-77 527,-202 745,-311 247,-123 524,-287 562,-331 37,-45 45,-19 45,141 0,100 -6,177 -20,257 -18,100 -19,118 -7,142 8,14 22,68 31,119 l 17,93 96,-7 c 136,-10 434,-56 524,-82 36,-11 297,-426 413,-656 99,-197 185,-413 223,-558 29,-115 37,-130 61,-130 17,0 31,20 69,103 42,88 70,157 88,217 6,19 34,-26 117,-190 74,-146 116,-258 157,-425 48,-196 48,-232 4,-366 -21,-63 -51,-149 -67,-191 l -29,-77 -50,19 c -111,44 -147,69 -182,123 -95,148 -319,383 -498,524 -276,215 -553,350 -850,414 -138,30 -392,33 -519,6 -373,-78 -657,-251 -761,-463 -28,-55 -31,-71 -26,-115 4,-29 9,-54 11,-57 3,-3 23,11 44,30 94,85 264,178 412,226 75,25 200,52 236,52 h 26 l -31,-31 c -95,-95 -161,-251 -197,-468 -22,-127 -29,-387 -15,-516 35,-317 144,-649 256,-772 42,-48 50,-52 118,-64 96,-18 747,-19 829,-2 78,17 128,55 187,144 116,175 205,440 232,694 11,103 8,324 -7,435 l -5,45 113,-115 c 133,-137 221,-248 243,-309 19,-55 19,-180 0,-254 -8,-31 -33,-93 -55,-136 -26,-53 -36,-82 -29,-87 6,-4 14,-2 18,4 3,6 29,20 56,32 27,12 75,37 108,57 32,19 60,33 63,31 6,-7 -140,-239 -238,-378 -141,-199 -248,-330 -393,-479 -119,-122 -336,-310 -400,-347 -12,-6 -16,-16 -12,-27 14,-38 219,-12 433,53 409,125 866,324 1177,512 160,97 358,235 440,308 31,29 57,49 57,45 0,-20 -123,-241 -187,-336 -46,-69 -71,-115 -65,-121 30,-30 322,137 562,322 123,95 412,385 523,525 l 87,109 48,-2 c 198,-11 526,-73 546,-104 46,-74 -228,-532 -500,-832 -175,-195 -376,-366 -617,-527 -419,-279 -728,-350 -1148,-263 -23,4 -42,-8 -124,-80 -391,-343 -906,-636 -1518,-865 -175,-66 -321,-109 -622,-187 -416,-106 -830,-184 -1089,-204 -157,-12 -692,-12 -821,0 -790,75 -1526,252 -2235,537 -765,308 -1294,706 -1466,1104 -20,46 -63,154 -95,239 -33,85 -65,157 -71,161 -16,10 -28,2 -28,-20 0,-15 95,-325 114,-371 5,-11 -3,-19 -27,-28 -41,-15 -93,-15 -192,-1 -174,24 -309,73 -437,160 -130,89 -341,315 -466,501 -42,63 -48,77 -41,103 30,112 62,329 68,452 l 6,143 57,-78 c 120,-161 343,-385 523,-525 410,-319 1004,-572 1392,-594 103,-6 113,-5 120,12 4,13 1,22 -11,29 -127,77 -283,202 -411,331 -140,139 -280,327 -407,545 -81,139 -161,290 -153,290 3,0 21,-11 38,-24 18,-13 120,-76 227,-140 107,-63 210,-124 228,-135 51,-32 79,-27 48,8 -7,9 -26,52 -42,96 -24,71 -28,98 -32,237 l -4,157 42,78 c 23,43 63,107 88,143 46,65 202,234 209,227 2,-2 -6,-44 -18,-93 -29,-124 -23,-347 15,-509 73,-310 210,-603 355,-757 67,-72 79,-80 145,-101 176,-55 703,-5 894,86 53,25 79,64 111,166 81,263 110,888 56,1228 -18,113 -56,239 -92,301 -14,24 -23,46 -20,48 6,6 134,-41 248,-91 125,-56 165,-68 193,-61 73,18 -2,165 -142,279 -178,145 -383,246 -572,281 -109,21 -338,21 -461,0 -210,-35 -473,-145 -678,-282 -249,-167 -495,-417 -603,-613 -23,-44 -51,-92 -60,-108 -25,-43 -140,-108 -223,-125 -38,-8 -72,-13 -76,-10 -18,11 -70,183 -78,262 -54,496 17,1134 210,1892 211,829 571,1644 1110,2514 l 84,135 11,-162 c 6,-90 14,-181 18,-203 z m 5147,-1414 c 160,-178 332,-381 327,-386 -3,-2 -61,9 -129,26 -68,16 -167,35 -219,43 l -94,13 4,94 c 3,52 5,148 5,212 0,64 3,114 6,110 3,-4 48,-54 100,-112 z m 94,-385 c 44,-9 130,-30 190,-46 99,-27 113,-34 138,-66 15,-20 26,-37 25,-38 -2,-2 -43,6 -93,16 -100,20 -387,59 -440,59 -42,0 -47,8 -39,61 l 7,42 66,-6 c 36,-3 102,-13 146,-22 z m -4550,-175 c 90,-19 104,-25 140,-61 l 40,-39 h -210 c -500,0 -908,-99 -1361,-328 -152,-77 -150,-72 27,62 260,197 554,332 829,382 113,20 406,12 535,-16 z M 8699,22975 c 36,-88 137,-306 266,-570 160,-326 249,-576 310,-865 39,-185 46,-454 15,-633 -30,-181 -19,-200 54,-89 49,76 84,153 130,291 l 32,93 59,-78 c 274,-367 500,-539 799,-606 96,-22 269,-29 341,-15 40,8 40,7 63,-37 13,-24 45,-68 71,-97 26,-30 68,-81 93,-114 56,-73 221,-235 303,-296 255,-192 603,-382 970,-529 552,-221 1146,-384 1715,-470 41,-6 88,-14 103,-17 l 29,-5 -30,-18 c -29,-18 -102,-104 -102,-121 0,-5 -24,-9 -52,-9 -123,-1 -197,-74 -238,-237 -8,-31 -17,-44 -33,-48 -331,-72 -511,-124 -650,-188 -103,-48 -169,-93 -267,-184 l -83,-76 -236,6 c -277,6 -416,25 -685,91 -205,51 -537,161 -713,236 -136,59 -316,152 -418,217 -71,45 -155,119 -155,136 0,5 21,28 46,50 101,89 109,193 21,293 l -39,44 16,40 c 10,25 16,70 16,119 0,115 -4,111 100,104 228,-15 398,59 510,222 31,45 56,125 46,150 -7,20 -38,19 -67,-4 -87,-67 -188,-74 -339,-22 -52,18 -117,45 -145,61 -124,70 -283,93 -406,56 -122,-35 -285,-164 -339,-269 -20,-39 -29,-47 -45,-42 -57,18 -122,17 -161,-3 -34,-17 -71,-66 -90,-120 0,-1 -31,11 -67,28 -205,93 -530,147 -949,157 -131,3 -238,7 -238,9 0,2 15,74 34,161 76,350 122,642 175,1113 60,532 73,830 74,1766 l 2,731 61,-166 c 34,-91 76,-202 93,-246 z m 12277,-145 c 101,-575 306,-1624 400,-2055 30,-137 109,-468 175,-734 65,-266 119,-484 119,-485 0,-1 -105,0 -234,2 -252,5 -593,-10 -795,-34 -68,-8 -125,-13 -127,-12 -1,2 -19,75 -39,163 -94,416 -192,746 -278,935 l -43,95 202,200 c 210,209 295,313 454,555 97,149 164,281 186,371 14,58 14,69 1,101 -9,20 -26,43 -39,52 -44,29 -272,87 -413,105 -107,14 -139,21 -137,32 2,7 19,34 37,59 153,208 381,667 452,907 10,34 19,60 20,59 2,-2 28,-144 59,-316 z m -4373,279 c 34,-17 90,-51 125,-76 59,-42 62,-46 62,-87 0,-103 -59,-217 -137,-263 -62,-36 -152,-38 -208,-3 -52,32 -95,112 -95,176 0,109 45,192 137,253 25,17 48,31 50,31 2,0 32,-14 66,-31 z m 305,-295 c 12,-4 22,-11 22,-16 0,-5 -21,-48 -47,-94 -49,-87 -77,-110 -108,-84 -24,20 -18,50 27,119 55,85 58,87 106,75 z m -5002,-115 c 49,-17 95,-36 103,-42 17,-15 10,-88 -18,-177 -46,-146 -124,-216 -238,-214 -79,2 -124,28 -163,98 -67,116 -21,270 105,354 52,35 62,34 211,-19 z m 292,-117 c 4,-26 -24,-116 -46,-149 -27,-42 -72,-25 -72,27 0,24 37,110 58,133 22,24 56,18 60,-11 z m 4622,-52 c -17,-32 -48,-187 -56,-275 -11,-135 32,-322 93,-409 61,-86 175,-134 252,-106 132,47 214,176 243,382 13,90 0,255 -26,342 -8,25 -13,46 -12,46 1,0 35,-11 74,-24 107,-37 189,-80 262,-139 l 65,-53 -1,-140 c -1,-166 -22,-276 -90,-469 -25,-71 -47,-151 -49,-176 -4,-58 -17,-85 -68,-131 -34,-32 -49,-38 -106,-44 -88,-11 -646,-11 -741,-1 l -76,8 -41,107 c -51,133 -97,315 -119,469 -18,133 -15,367 6,467 13,56 15,59 59,78 93,39 259,85 319,87 20,1 21,-2 12,-19 z m -3986,-219 c 29,-15 68,-50 97,-85 40,-49 49,-69 55,-114 11,-88 -3,-477 -20,-581 -13,-72 -14,-97 -5,-108 17,-20 14,-95 -6,-132 -21,-41 -54,-54 -200,-80 -195,-34 -242,-40 -405,-50 -172,-11 -292,-1 -324,27 -39,35 -135,174 -170,246 -68,144 -146,405 -170,572 -6,41 -5,43 57,96 79,70 169,131 232,159 53,22 184,69 195,69 4,0 10,-73 13,-162 5,-174 17,-233 76,-363 53,-116 190,-206 293,-192 76,10 169,133 214,282 27,88 25,295 -4,388 l -21,68 22,-7 c 12,-3 44,-18 71,-33 z m 7295,-1756 c 90,-203 177,-511 290,-1020 102,-462 125,-637 124,-965 0,-239 -10,-330 -59,-545 -83,-361 -174,-593 -373,-950 -42,-74 -78,-154 -86,-185 -7,-30 -28,-118 -48,-195 -20,-77 -55,-214 -77,-305 -22,-91 -65,-248 -96,-350 -149,-501 -224,-809 -273,-1125 -20,-132 -61,-540 -61,-614 0,-22 -4,-42 -9,-46 -19,-11 -137,198 -324,570 -292,582 -560,1220 -661,1575 -75,264 -128,563 -181,1029 -13,113 -22,140 -46,141 -24,0 -27,-33 -18,-174 l 10,-148 -35,-81 c -41,-95 -118,-359 -137,-466 -17,-98 -23,-76 -43,144 -41,445 -46,1088 -11,1405 48,445 140,943 234,1270 17,58 61,192 97,299 59,171 71,197 103,225 20,17 70,64 113,105 l 77,73 63,-17 c 98,-26 318,-31 458,-11 248,37 510,159 806,375 60,44 112,80 115,80 4,1 25,-42 48,-94 z m -1826,-627 c -17,-21 -110,-299 -152,-452 -48,-175 -102,-429 -142,-670 -33,-201 -79,-560 -79,-616 v -36 l -72,-18 c -380,-93 -528,-118 -777,-136 l -154,-10 -16,22 c -34,49 -225,260 -280,310 -69,62 -146,110 -232,145 -57,23 -218,73 -281,87 l -28,6 v 96 c 0,89 -2,96 -25,118 -14,13 -40,27 -58,30 -28,6 -36,16 -69,86 -20,44 -35,80 -33,80 45,0 529,118 791,194 529,151 1071,402 1479,684 139,96 143,99 128,80 z m -4074,-1007 c 8,-6 10,-14 5,-23 -8,-12 -15,-11 -43,9 l -34,23 h 29 c 16,0 35,-4 43,-9 z m 1370,-5 c -2,-2 -23,-13 -46,-25 -42,-21 -43,-21 -43,-2 0,11 8,22 18,24 22,6 77,8 71,3 z m 273,-50 27,-55 -57,-6 c -74,-8 -206,-33 -238,-45 -19,-7 -25,-16 -22,-33 3,-25 0,-25 140,-8 129,15 271,14 286,-1 14,-14 16,-179 3,-247 -8,-38 -21,-57 -92,-125 l -83,-81 -8,55 c -25,172 -43,196 -181,239 -56,18 -124,35 -150,39 l -48,7 26,34 c 14,19 25,49 25,65 0,17 3,47 6,67 6,36 6,36 135,84 108,40 160,57 199,64 3,1 18,-23 32,-53 z m -1705,-35 c 49,-31 61,-45 65,-70 2,-17 4,-31 4,-31 -1,0 -25,9 -53,20 -29,11 -85,23 -124,26 l -72,7 46,44 c 25,23 52,43 60,43 8,0 41,-18 74,-39 z m -85,-135 c 101,-20 158,-44 158,-67 0,-10 -5,-19 -11,-19 -6,0 -8,-9 -4,-20 5,-17 2,-20 -27,-20 -131,-1 -367,-104 -386,-169 -4,-14 -7,-65 -7,-113 0,-86 0,-87 -18,-65 -29,37 -89,169 -94,208 -10,69 53,254 91,269 34,14 218,11 298,-4 z m 1397,-156 c 28,-5 77,-17 107,-26 l 56,-16 -50,-29 c -71,-40 -167,-132 -192,-183 -24,-50 -22,-58 38,-173 29,-57 35,-76 26,-90 -19,-31 -216,-123 -303,-141 -72,-15 -82,-15 -96,-1 -25,25 -41,165 -28,250 10,60 9,80 -4,118 -28,82 -112,186 -134,164 -8,-8 5,-37 45,-103 31,-51 56,-96 56,-99 0,-4 -42,-5 -92,-3 -143,6 -269,-30 -328,-93 -22,-23 -25,-35 -23,-93 1,-37 8,-89 17,-116 8,-27 12,-54 9,-59 -3,-6 -42,-8 -92,-5 -70,4 -102,12 -172,42 l -85,37 8,67 c 4,37 13,90 18,118 6,29 12,86 13,127 2,72 0,77 -28,107 -34,35 -149,96 -201,106 -19,3 -34,9 -34,13 0,11 93,38 197,57 91,17 91,17 145,-5 99,-41 201,-62 362,-73 248,-18 467,12 606,81 63,32 86,35 159,21 z m 265,-137 c 3,-21 6,-55 6,-77 0,-32 -2,-37 -15,-26 -8,6 -48,27 -90,45 l -76,33 34,20 c 45,29 77,41 108,41 23,1 27,-4 33,-36 z m 711,-46 c 92,-49 317,-276 412,-417 88,-131 323,-528 323,-547 0,-5 -11,-15 -24,-21 -14,-6 -44,-28 -67,-49 -40,-37 -41,-38 -35,-89 5,-45 3,-53 -19,-74 l -25,-24 -18,25 c -9,13 -25,69 -34,124 -35,206 -118,365 -191,365 -38,0 -90,-52 -130,-128 -31,-58 -35,-61 -49,-45 -9,11 -20,56 -26,118 -28,246 -147,611 -255,782 -15,24 -27,45 -27,48 0,7 98,-33 165,-68 z m -2437,28 c 71,-17 168,-63 196,-94 14,-15 17,-29 12,-56 -4,-20 -13,-35 -21,-35 -8,0 -65,-21 -127,-46 -181,-75 -163,-77 -187,26 -21,86 -27,173 -15,204 8,20 58,21 142,1 z m 1616,-109 c 100,-47 117,-59 129,-88 8,-18 50,-67 93,-107 43,-40 66,-66 51,-57 -16,10 -47,24 -70,32 -35,12 -43,12 -55,0 -18,-17 -26,-10 183,-149 380,-251 586,-440 609,-558 2,-13 10,-37 16,-54 18,-44 25,-279 10,-377 -20,-142 -76,-340 -132,-476 -58,-139 -168,-335 -250,-446 -47,-65 -51,-68 -81,-62 -169,34 -223,40 -407,39 -153,0 -219,-4 -310,-21 -241,-44 -556,-151 -702,-239 l -92,-56 -23,29 c -67,85 -173,325 -173,393 0,10 -7,24 -15,31 -13,11 -17,8 -26,-19 -40,-114 -169,-329 -258,-431 l -40,-45 -33,31 c -153,145 -525,294 -847,338 -185,26 -471,16 -564,-20 -12,-4 -34,22 -88,103 -171,260 -279,565 -279,790 0,71 6,104 29,170 38,111 65,153 162,257 197,210 503,409 772,502 59,20 108,42 108,48 1,6 2,16 3,23 1,15 72,71 252,199 l 148,105 58,-59 c 53,-55 61,-60 103,-60 27,-1 74,9 111,23 l 64,24 v -25 c 0,-42 27,-81 64,-94 29,-9 37,-18 42,-45 3,-18 17,-43 30,-56 17,-16 22,-29 18,-46 -21,-83 85,-134 149,-70 19,19 33,22 107,23 117,1 143,14 152,79 6,44 79,279 89,290 12,11 151,26 197,20 l 53,-7 -8,-36 c -9,-48 -9,-159 0,-194 6,-21 4,-28 -8,-28 -21,0 -48,-45 -40,-69 15,-48 77,-69 105,-36 8,10 31,15 65,15 72,0 164,30 260,85 93,53 152,107 160,146 6,27 -30,114 -71,173 -8,11 -14,24 -14,28 0,8 69,88 76,88 2,0 55,-24 118,-54 z m -2474,29 c 0,-2 -15,-28 -33,-57 -60,-95 -160,-289 -218,-427 l -58,-136 -97,-67 c -195,-133 -318,-245 -443,-403 l -56,-70 -20,41 -21,41 187,327 c 227,397 254,439 333,517 84,83 178,144 304,195 106,43 122,49 122,39 z m 1498,-272 c -39,-134 -40,-136 -49,-68 -11,84 -4,111 39,140 20,14 37,25 38,25 1,0 -12,-44 -28,-97 z m 2159,-492 c 41,-60 84,-216 90,-322 7,-115 3,-134 -37,-184 -16,-21 -30,-48 -30,-61 0,-18 -9,-26 -49,-39 -57,-19 -91,-49 -73,-67 8,-8 33,-5 99,15 105,32 105,32 128,7 40,-45 24,-248 -29,-365 -42,-91 -94,-127 -201,-140 -75,-9 -80,-13 -60,-36 16,-17 16,-18 -11,-24 -55,-12 -97,-30 -102,-44 -4,-11 8,-13 66,-7 38,4 82,4 97,0 25,-6 27,-10 22,-47 -8,-61 -72,-178 -133,-246 -63,-69 -131,-101 -217,-101 -44,-1 -55,-5 -70,-25 -24,-33 -15,-45 33,-45 79,0 86,-17 41,-96 -39,-67 -119,-138 -185,-163 -52,-19 -194,-43 -230,-39 -10,2 -23,-5 -29,-14 -9,-14 -7,-22 11,-41 l 23,-25 -26,-20 c -52,-41 -134,-65 -240,-69 l -100,-5 59,36 c 429,262 801,759 945,1261 50,176 65,274 65,445 0,121 -4,182 -16,230 l -16,65 40,78 c 72,137 93,151 135,88 z m -4747,-251 c 70,-72 140,-180 140,-217 0,-12 5,-25 11,-29 7,-4 8,-19 4,-38 -18,-81 -22,-158 -13,-240 37,-347 265,-791 540,-1052 224,-213 555,-400 773,-438 l 70,-13 -33,-17 c -41,-21 -140,-30 -212,-19 l -55,8 -5,45 -5,45 -97,-3 c -121,-5 -195,14 -232,59 -28,32 -33,68 -15,86 28,28 2,40 -102,46 -89,6 -113,11 -169,39 -67,32 -180,134 -180,161 0,8 14,20 30,27 17,7 30,16 30,20 0,3 11,13 25,20 14,7 25,22 25,33 0,16 -4,18 -27,12 -16,-4 -65,-9 -111,-12 -75,-5 -88,-3 -137,22 -30,14 -71,45 -91,68 -35,40 -104,169 -104,193 0,26 78,32 174,13 31,-7 60,-9 63,-5 14,13 -14,41 -57,57 -51,19 -70,44 -40,54 11,4 20,15 20,27 0,17 -5,20 -32,15 -52,-7 -130,27 -178,79 -74,81 -134,242 -128,346 3,47 6,53 26,56 13,2 61,-9 108,-24 63,-21 87,-25 96,-16 15,15 -2,35 -42,52 -20,8 -33,23 -41,49 -19,59 -57,119 -86,133 -62,30 -91,130 -100,342 l -6,149 49,-33 c 27,-19 78,-63 114,-100 z m 5319,15 c 14,-98 14,-163 -3,-257 -12,-67 -20,-84 -62,-138 -27,-34 -76,-85 -109,-112 l -60,-51 -18,61 c -18,58 -40,83 -60,63 -5,-5 -3,-39 7,-87 l 16,-79 -22,-18 c -57,-45 -57,-45 -51,56 7,113 -6,166 -49,202 -24,20 -40,26 -64,23 l -32,-4 19,28 c 11,15 25,28 30,28 6,0 18,18 28,40 l 18,40 16,-37 c 9,-21 21,-51 27,-66 7,-19 16,-27 28,-25 23,4 26,36 9,86 -14,40 -14,42 9,57 23,15 25,14 34,-10 5,-14 13,-37 16,-51 7,-28 30,-42 44,-28 5,5 -3,56 -19,122 l -29,112 37,30 c 38,32 171,89 207,90 19,0 23,-8 33,-75 z m 139,-82 32,-24 -17,-30 c -23,-38 -89,-101 -80,-76 4,10 7,52 7,93 0,82 -2,81 58,37 z m -5691,-115 c 6,-7 14,-31 17,-53 11,-64 43,-119 96,-169 44,-41 70,-75 70,-89 0,-3 -10,-3 -21,0 -41,11 -142,138 -190,238 -35,73 -36,85 -5,85 13,0 28,-6 33,-12 z m -4630,-775 c 140,-214 291,-531 374,-786 82,-250 107,-422 103,-707 -3,-190 -6,-215 -35,-340 -40,-169 -47,-251 -24,-273 22,-22 37,-21 69,4 36,28 64,87 121,254 70,200 172,362 387,612 223,258 556,522 773,612 49,21 77,26 150,26 80,0 96,-3 150,-30 81,-41 198,-159 252,-255 23,-41 62,-135 87,-208 25,-73 49,-139 53,-145 4,-6 6,-26 4,-43 -1,-18 2,-35 8,-39 6,-3 11,-19 11,-35 0,-28 22,-60 41,-60 44,0 72,65 124,295 15,66 39,143 54,170 15,29 74,98 141,165 271,271 578,419 1007,486 107,16 473,32 473,20 0,-4 -58,-128 -128,-274 -70,-147 -177,-370 -238,-497 l -109,-230 -271,-270 c -149,-148 -298,-304 -331,-345 -83,-103 -194,-267 -302,-445 -54,-89 -100,-153 -112,-157 -15,-6 -20,-14 -16,-29 4,-15 -60,-139 -220,-427 -124,-224 -229,-411 -234,-416 -4,-5 -10,2 -13,15 -56,246 -126,508 -171,638 -14,41 -25,85 -25,99 0,48 -36,80 -119,106 -156,50 -282,61 -676,61 -552,0 -602,-15 -667,-195 -22,-61 -23,-79 -23,-290 1,-307 46,-692 131,-1110 24,-118 42,-216 40,-218 -6,-5 -125,164 -270,385 -70,106 -140,202 -156,213 -122,87 -455,184 -797,233 l -158,22 -17,95 c -26,149 -41,354 -35,481 7,151 -14,199 -63,147 -31,-33 -215,-402 -235,-473 -10,-33 -20,-67 -23,-75 -3,-8 -16,28 -30,80 -24,88 -25,112 -25,310 0,577 139,1157 493,2052 99,251 383,908 392,908 5,0 43,-53 85,-117 z m 4638,59 c -6,-5 -27,-19 -48,-32 l -39,-23 27,53 27,53 21,-22 c 13,-13 18,-24 12,-29 z m 10834,-130 c 68,-179 200,-497 289,-697 44,-99 175,-394 292,-655 277,-621 327,-742 415,-1005 166,-494 241,-890 270,-1415 l 5,-105 -39,115 c -162,482 -597,1167 -1094,1723 -71,79 -86,88 -106,63 -9,-11 -2,-54 33,-193 175,-698 192,-1404 50,-2202 -46,-260 -134,-631 -191,-806 l -26,-80 -14,79 c -35,208 -116,448 -250,751 -113,251 -429,766 -554,900 -45,48 -47,53 -54,125 -26,288 -79,546 -196,960 -69,242 -173,536 -194,544 -7,2 -21,-1 -32,-9 -17,-13 -16,-20 34,-172 66,-201 100,-319 162,-569 94,-374 128,-577 151,-896 30,-430 -15,-882 -139,-1383 -39,-157 -119,-420 -126,-413 -2,1 1,37 5,78 22,182 4,630 -25,659 -13,14 -17,13 -35,-5 -11,-11 -49,-96 -84,-189 -82,-219 -123,-312 -201,-463 -69,-132 -231,-384 -344,-535 -94,-126 -300,-363 -403,-465 l -84,-82 -38,107 c -74,209 -188,488 -246,602 -73,146 -191,351 -240,417 -29,38 -37,57 -33,77 6,30 -15,45 -41,30 -8,-4 -60,-76 -115,-158 -54,-83 -147,-209 -204,-281 -107,-133 -301,-343 -309,-334 -2,3 -87,106 -187,229 l -184,223 -53,172 c -137,445 -474,1265 -734,1791 -257,518 -588,1071 -855,1431 l -83,111 14,71 c 19,103 4,134 -71,146 l -40,7 7,127 c 3,70 6,240 7,378 1,138 4,285 7,327 l 7,76 55,-67 c 103,-125 518,-646 588,-739 184,-243 250,-346 267,-414 62,-252 156,-475 274,-654 33,-49 196,-263 363,-475 432,-548 505,-645 679,-897 60,-87 64,-95 66,-155 2,-69 69,-320 111,-421 27,-63 27,-59 9,-247 -2,-19 -13,-75 -25,-125 -24,-100 -23,-164 5,-195 25,-28 33,-26 77,21 29,30 49,42 72,44 93,5 210,111 277,251 22,47 47,88 56,91 16,6 96,-32 266,-126 101,-55 276,-115 389,-132 96,-15 309,-7 364,13 23,8 59,28 80,45 27,21 55,33 89,37 77,9 108,58 61,93 l -24,18 50,10 c 33,6 56,18 65,31 12,19 11,24 -11,51 -29,34 -125,88 -176,98 -79,16 -306,161 -403,258 -48,48 -78,87 -98,134 -45,97 -130,230 -191,296 -29,32 -95,88 -147,125 l -94,67 -39,90 c -67,153 -164,401 -263,673 -109,298 -175,460 -268,652 -122,252 -185,343 -486,705 -101,121 -206,252 -233,290 -28,39 -119,210 -202,380 -130,265 -277,545 -347,661 l -19,32 67,-5 c 109,-7 298,-32 377,-49 l 72,-16 67,-168 c 99,-247 206,-481 412,-895 205,-412 295,-572 371,-654 29,-31 53,-65 55,-76 3,-11 14,-21 26,-23 31,-5 37,22 78,386 19,172 42,359 51,415 9,56 18,119 21,140 3,20 9,37 13,37 4,0 17,-37 29,-82 28,-105 50,-149 79,-159 28,-11 62,20 62,55 0,14 5,28 11,32 6,4 9,19 5,37 -3,16 -2,35 4,42 5,6 28,65 50,130 65,188 114,270 228,377 123,116 256,159 393,128 125,-28 416,-196 600,-347 202,-165 401,-369 543,-558 126,-166 150,-208 211,-376 60,-162 84,-209 124,-246 27,-26 63,-30 80,-10 26,32 22,75 -23,256 l -46,183 v 232 c 0,253 13,359 66,541 61,211 197,517 321,723 73,120 229,342 241,342 4,0 27,-53 51,-118 z m -10726,72 34,-16 7,-112 c 3,-61 10,-128 15,-149 9,-35 7,-39 -16,-48 -14,-5 -28,-7 -32,-4 -5,6 -50,293 -51,328 0,21 1,21 43,1 z m -67,-216 c 10,-76 15,-140 12,-143 -5,-5 -324,-127 -365,-139 -19,-6 -8,22 79,204 98,202 103,212 142,230 23,10 55,27 71,38 l 30,19 7,-36 c 3,-20 14,-98 24,-173 z m 2571,-290 c 35,-75 99,-173 149,-228 l 33,-37 -19,-21 c -36,-38 -122,-56 -260,-56 -150,0 -218,20 -231,67 -6,23 -1,35 37,80 25,28 66,83 90,120 49,74 133,241 135,266 1,9 9,-16 18,-55 10,-38 31,-100 48,-136 z m -2411,90 c 9,-29 30,-82 46,-117 l 28,-64 -20,-111 c -19,-108 -36,-142 -65,-133 -9,3 -63,350 -64,417 -1,22 12,36 56,59 1,1 9,-23 19,-51 z m 1163,-4 c 58,-8 150,-26 204,-40 104,-26 285,-88 299,-102 9,-9 -201,-64 -307,-82 -91,-14 -322,-39 -393,-41 -61,-2 -66,-1 -116,40 -66,52 -221,210 -214,217 25,24 378,30 527,8 z m -1263,-230 30,-226 -48,-24 c -139,-70 -424,-181 -436,-169 -3,3 -16,97 -29,210 -31,269 -35,259 127,315 63,21 158,57 210,79 52,22 100,40 105,40 6,1 23,-98 41,-225 z m 4070,205 c 44,-6 85,-15 93,-19 10,-5 -24,-45 -122,-144 l -135,-136 h -105 c -135,0 -281,15 -437,45 -128,25 -350,92 -350,106 0,10 261,93 370,118 74,17 154,30 280,45 58,7 322,-3 406,-15 z m -4588,-644 c -3,-4 -225,-65 -235,-65 0,0 45,91 100,203 l 102,202 19,-168 c 10,-93 16,-170 14,-172 z m 634,163 c -2,-21 -8,-38 -13,-38 -14,0 -11,68 4,73 16,6 15,8 9,-35 z m -57,-115 c 20,-113 20,-97 -17,-312 l -11,-64 -121,-57 c -163,-76 -284,-125 -292,-117 -7,7 -63,394 -64,438 0,25 7,29 123,69 67,23 172,66 232,95 61,29 115,54 120,54 6,1 19,-47 30,-106 z m 536,-94 c 4,-52 8,-257 10,-457 l 3,-362 -47,-30 c -80,-50 -94,-108 -53,-215 l 23,-60 -139,-72 c -76,-40 -189,-105 -251,-146 l -112,-73 -65,38 c -36,21 -77,38 -92,38 -44,0 -84,-41 -175,-179 -4,-6 -83,71 -83,80 0,4 22,43 49,86 98,158 207,410 226,521 5,30 59,127 182,330 96,158 194,314 217,347 24,33 78,117 120,187 l 77,127 52,-33 52,-33 z m 3039,111 c 0,-17 -7,-20 -37,-20 l -38,1 35,19 c 19,11 36,19 38,20 1,0 2,-9 2,-20 z m -1775,-155 c 77,-125 113,-201 150,-315 40,-128 43,-122 -82,-159 -60,-17 -131,-31 -160,-31 h -51 l -12,53 c -7,28 -15,131 -17,227 -3,96 -10,181 -15,188 -17,20 -28,14 -40,-18 -12,-36 -30,-28 -46,20 -10,27 -9,29 19,35 16,4 50,22 76,42 25,19 49,31 53,26 4,-4 15,-42 25,-83 44,-183 118,-360 151,-360 27,0 25,26 -11,121 -30,78 -115,349 -115,367 0,9 5,1 75,-113 z m 140,95 c 97,-14 429,-89 737,-169 l 227,-58 -40,-84 c -22,-46 -42,-85 -43,-86 -1,-2 -128,33 -282,77 -274,79 -515,143 -584,155 -31,6 -42,17 -93,97 -56,88 -57,90 -30,84 16,-3 64,-10 108,-16 z m 1470,0 c 3,-5 -1,-10 -9,-10 -8,0 -18,5 -21,10 -3,6 1,10 9,10 8,0 18,-4 21,-10 z m -3971,-87 c 3,-16 13,-82 21,-147 15,-108 15,-125 1,-180 -9,-34 -19,-81 -24,-106 l -7,-44 -116,-37 c -63,-21 -174,-53 -246,-72 l -130,-35 -7,91 c -12,179 -15,169 67,258 43,47 88,109 112,156 l 40,78 80,16 c 44,10 105,24 135,32 30,8 58,16 62,16 3,1 9,-11 12,-26 z m 2035,-80 c 17,-39 33,-59 55,-70 29,-13 31,-18 28,-54 -6,-55 15,-224 34,-283 14,-42 22,-51 62,-68 36,-16 59,-19 113,-16 l 67,5 6,-45 c 3,-25 9,-96 12,-157 l 7,-112 -33,-6 c -41,-9 -187,-7 -220,2 l -25,7 -5,157 c -4,124 -9,160 -20,167 -8,5 -19,8 -25,7 -17,-5 -54,-130 -66,-226 l -12,-91 h -39 c -38,0 -155,34 -171,50 -5,4 4,64 19,132 l 27,125 71,9 c 61,8 71,12 74,30 3,19 -3,22 -64,27 -36,4 -72,11 -79,17 -7,6 -19,8 -27,5 -9,-4 -28,5 -44,18 l -28,25 23,73 c 59,184 130,326 166,331 53,8 69,-2 94,-59 z m -1523,-293 c -9,-48 -35,-108 -98,-227 -47,-88 -91,-177 -97,-196 -8,-25 -28,-46 -64,-71 -29,-20 -57,-36 -62,-36 -10,0 -71,408 -62,417 3,2 70,33 149,67 78,34 166,74 193,88 28,14 51,25 52,24 1,0 -4,-30 -11,-66 z m -461,-82 c -20,-15 -23,-7 -12,29 l 12,38 5,-30 c 3,-17 1,-33 -5,-37 z m -615,-71 5,-107 -50,-10 c -64,-13 -217,-40 -229,-40 -4,0 49,61 119,135 71,75 133,134 139,132 7,-2 13,-46 16,-110 z m 3540,78 c 118,-14 232,-25 253,-25 42,0 44,-7 23,-95 l -12,-50 -69,3 c -38,1 -130,12 -204,23 -74,11 -182,22 -238,26 -57,3 -105,9 -107,12 -2,3 -6,34 -10,69 l -7,62 h 78 c 43,0 175,-11 293,-25 z m -2877,-260 c 15,-104 27,-200 27,-213 0,-19 -16,-31 -105,-72 -168,-79 -449,-179 -463,-166 -12,13 -60,471 -50,481 2,2 71,22 153,44 83,22 206,60 275,84 69,23 128,41 131,38 3,-4 18,-91 32,-196 z m -648,-52 c 4,-38 15,-147 26,-242 15,-138 16,-177 6,-183 -31,-19 -427,-97 -512,-101 l -50,-2 -6,140 -7,140 47,70 c 25,38 69,99 98,136 l 52,66 78,8 c 43,3 110,13 148,20 119,22 112,25 120,-52 z m 3779,-120 c 4,-36 3,-69 -1,-73 -4,-4 -82,-20 -173,-35 -91,-15 -177,-29 -191,-32 -23,-4 -27,1 -54,67 -23,57 -26,73 -15,80 7,4 72,15 144,24 72,9 160,20 196,25 36,5 70,9 76,10 7,0 14,-26 18,-66 z m -2986,-108 c -17,-42 -33,-73 -36,-70 -3,3 -8,24 -11,48 -6,40 -5,43 34,69 22,14 41,27 42,27 1,1 -12,-33 -29,-74 z m -93,-92 13,-78 -36,-60 c -75,-126 -91,-146 -112,-135 -28,15 -83,12 -109,-6 -21,-15 -26,-15 -65,0 -56,22 -104,20 -144,-4 l -33,-20 -44,31 c -37,26 -44,38 -50,76 -4,25 -3,49 2,53 4,4 42,17 83,30 100,30 307,112 400,159 41,20 77,36 79,34 2,-1 9,-38 16,-80 z m -1292,-211 c -2,-5 -93,49 -93,55 0,3 19,36 43,74 l 42,68 5,-97 c 3,-53 4,-99 3,-100 z m 4441,67 c 3,-17 6,-46 6,-64 v -32 l -109,-30 -109,-30 -28,59 c -15,32 -25,61 -21,64 6,7 218,61 243,63 6,1 14,-13 18,-30 z m -3790,-35 c 10,-25 1,-27 -41,-13 -37,12 -37,13 -13,20 39,11 47,10 54,-7 z m -714,-16 c 22,-13 40,-26 40,-30 0,-17 -71,-5 -98,17 -4,3 9,35 15,35 2,0 22,-10 43,-22 z m 511,-43 c -36,-42 -64,-93 -81,-152 -7,-24 -14,-43 -16,-43 -9,0 -230,147 -232,155 -2,7 283,68 347,74 7,0 -1,-15 -18,-34 z m 396,-207 53,-53 -25,-60 c -13,-33 -25,-72 -25,-87 0,-16 -2,-28 -4,-28 -2,0 -33,14 -69,30 -37,17 -82,30 -101,30 -29,0 -36,-4 -45,-32 -18,-52 -34,-226 -28,-309 l 5,-77 -88,62 c -48,33 -101,68 -117,77 -25,13 -31,25 -36,64 -17,121 74,474 145,562 7,9 44,-5 146,-57 106,-53 149,-80 189,-122 z m 3179,173 c 33,-20 76,-72 88,-104 5,-17 3,-17 -28,2 -49,31 -82,27 -120,-14 -19,-19 -43,-35 -54,-35 -25,0 -36,-32 -30,-85 4,-33 3,-34 -15,-17 -28,25 -47,67 -47,104 0,53 39,120 85,145 49,28 81,29 121,4 z m -5335,-27 c 133,-14 261,-42 280,-61 12,-12 41,-116 119,-421 51,-198 60,-247 60,-321 0,-75 3,-91 20,-106 11,-10 20,-23 20,-29 0,-6 -37,-65 -81,-132 -73,-107 -88,-123 -137,-149 -105,-55 -188,-108 -260,-167 -69,-56 -74,-58 -88,-41 -22,29 -60,137 -113,318 -27,94 -57,190 -65,214 -9,24 -16,52 -16,63 0,42 -168,362 -235,448 -36,47 -80,107 -98,133 -49,76 -210,175 -306,188 -68,10 -82,23 -45,42 42,21 107,29 304,37 223,9 468,3 641,-16 z m 1591,-107 c 63,-41 70,-48 60,-64 -11,-18 -266,149 -270,176 -4,23 7,17 210,-112 z m 1313,66 c 12,-7 -8,-27 -89,-90 -98,-76 -104,-79 -109,-57 -5,27 18,68 75,136 l 40,48 34,-15 c 18,-7 41,-18 49,-22 z m -417,-24 c 29,-16 80,-57 112,-89 38,-38 68,-60 82,-60 18,0 8,-14 -54,-72 -89,-84 -228,-245 -228,-265 0,-22 -11,-15 -75,45 -33,31 -71,65 -84,75 -21,17 -23,25 -18,67 3,27 20,77 38,112 43,86 139,218 158,218 9,0 40,-14 69,-31 z m -410,-348 c 42,-22 106,-60 142,-85 36,-25 84,-58 107,-73 42,-28 42,-29 43,-86 1,-146 127,-499 273,-762 28,-49 59,-102 69,-117 l 19,-27 -63,5 c -66,6 -224,-16 -272,-37 -14,-7 -26,-18 -26,-26 0,-33 -70,7 -128,73 -79,89 -159,304 -132,354 13,24 36,25 232,8 105,-8 142,-8 150,0 22,22 -6,32 -127,48 -66,8 -134,17 -151,20 -39,6 -116,72 -149,128 -50,85 -67,182 -72,409 -3,114 -3,207 1,207 4,0 41,-18 84,-39 z m -465,-211 c 31,-12 114,-56 184,-98 l 128,-77 17,-66 c 25,-96 59,-167 106,-219 l 40,-46 -20,-24 c -18,-22 -20,-35 -15,-106 4,-64 12,-99 40,-164 l 36,-82 -32,6 c -18,3 -111,13 -207,21 -194,17 -264,33 -309,70 -41,35 -142,237 -180,360 -35,112 -61,268 -61,362 0,60 1,63 28,69 15,3 33,7 40,10 6,2 12,-2 12,-9 0,-8 3,-9 8,-1 20,30 95,27 185,-6 z m -1940,-280 c 32,-93 174,-584 184,-635 4,-21 -130,-235 -147,-235 -14,0 -36,85 -66,250 -24,132 -27,174 -30,465 -5,357 -8,349 59,155 z m -1993,-44 c 306,-36 560,-91 754,-165 162,-61 180,-76 286,-251 35,-58 90,-144 122,-192 32,-48 58,-92 58,-98 0,-6 17,-29 38,-53 56,-62 165,-208 159,-213 -8,-8 -258,42 -407,82 -294,77 -438,113 -498,124 -34,6 -100,27 -145,46 -368,158 -901,314 -1310,384 -66,11 -133,20 -150,20 -36,0 -137,30 -137,41 0,13 181,170 239,207 86,55 135,72 233,82 137,13 600,4 758,-14 z m 2739,-309 c 6,-19 36,-63 66,-99 96,-117 243,-205 394,-236 78,-16 81,-18 81,-45 0,-61 -34,-187 -77,-287 -79,-183 -109,-263 -121,-325 -11,-61 -10,-76 28,-253 13,-61 8,-90 -9,-49 -8,22 -17,27 -43,27 -93,0 -170,54 -220,154 -65,131 -99,156 -210,156 -59,0 -96,-8 -192,-41 -250,-84 -432,-112 -596,-89 -98,13 -151,34 -202,78 -19,18 -45,35 -57,40 -21,7 -19,9 18,30 23,13 80,34 128,48 154,45 266,116 293,187 7,17 23,46 35,62 12,17 60,91 106,165 57,93 110,163 169,223 80,84 210,181 283,212 18,8 48,27 67,44 19,17 38,30 42,31 3,0 11,-15 17,-33 z m 1036,-96 c 36,-72 131,-170 190,-197 28,-13 76,-26 108,-30 36,-4 57,-11 57,-19 0,-8 3,-20 6,-28 3,-9 -8,-23 -31,-37 -36,-22 -75,-83 -75,-118 0,-28 28,-103 45,-121 8,-9 41,-52 73,-96 79,-109 161,-195 262,-277 92,-75 253,-162 319,-173 23,-4 40,-9 38,-11 -2,-3 -112,-18 -243,-35 -365,-46 -781,-111 -1227,-193 -104,-19 -195,-32 -203,-29 -15,5 -18,22 -8,47 5,14 8,14 31,-1 23,-15 26,-15 46,6 19,19 22,32 22,109 -1,55 -6,96 -15,112 -9,16 -15,68 -18,142 l -4,116 66,125 c 86,162 113,237 122,330 l 7,76 111,94 c 61,52 149,131 196,175 47,45 88,81 92,82 4,0 19,-22 33,-49 z m 9499,-43 c 166,-134 241,-236 336,-456 125,-289 128,-294 190,-353 64,-60 222,-148 268,-150 28,-1 117,-37 94,-38 -7,-1 -23,-11 -35,-24 -15,-15 -53,-31 -115,-46 -82,-21 -108,-23 -230,-18 -196,7 -345,54 -550,171 -53,30 -120,61 -148,67 -47,11 -55,10 -99,-12 -55,-28 -86,-61 -125,-138 -40,-81 -113,-146 -186,-166 -33,-9 -67,-20 -76,-26 -24,-12 -23,-6 7,147 14,69 25,139 25,155 0,46 -25,159 -79,351 -45,160 -55,209 -52,246 1,8 23,12 74,12 161,0 348,76 473,193 46,43 82,86 96,117 13,27 25,49 27,50 2,0 49,-37 105,-82 z m -8055,-356 c 83,-82 172,-148 243,-183 l 46,-22 -51,-31 c -29,-18 -104,-71 -167,-119 -63,-48 -121,-87 -130,-87 -22,0 -174,125 -244,201 -97,104 -196,273 -196,333 0,19 40,25 213,32 95,5 147,11 147,18 0,6 14,-7 32,-29 17,-22 65,-73 107,-113 z m -622,91 c 29,-16 53,-33 53,-40 0,-56 101,-230 195,-338 l 53,-61 12,-114 c 6,-62 13,-117 15,-120 8,-12 -84,-42 -126,-42 -133,2 -343,140 -527,345 -74,82 -152,187 -165,220 -26,68 110,139 308,161 66,7 122,14 125,15 3,0 28,-11 57,-26 z m -4270,-79 c 253,-107 338,-177 751,-619 119,-126 254,-267 301,-313 137,-134 285,-220 457,-269 l 97,-27 -54,-14 c -260,-64 -780,-228 -1013,-318 -76,-30 -140,-53 -141,-52 -21,27 -187,464 -275,723 l -57,170 29,47 c 30,49 31,88 3,88 -8,0 -30,8 -50,17 -33,16 -38,24 -65,114 -27,87 -116,409 -134,483 -7,27 -5,28 19,22 14,-4 73,-27 132,-52 z m 6657,-71 c -7,-32 -19,-84 -25,-115 -6,-32 -14,-58 -18,-58 -3,0 -82,20 -176,44 -142,36 -165,45 -140,51 17,4 104,35 195,70 91,34 168,63 172,64 3,0 0,-25 -8,-56 z m -714,-58 c 30,-8 118,-34 195,-58 77,-24 212,-61 300,-83 88,-21 161,-39 163,-40 2,-1 -19,-104 -23,-111 0,-1 -45,11 -100,27 -69,20 -103,26 -111,19 -25,-20 -2,-37 84,-64 48,-15 93,-28 100,-31 24,-7 4,-63 -85,-239 -47,-93 -90,-176 -96,-182 -5,-7 -30,-13 -56,-13 -55,0 -216,24 -286,43 -48,13 -50,15 -48,48 1,19 22,83 47,143 40,95 45,113 37,145 -5,20 -15,76 -22,125 -10,69 -10,91 -1,94 18,6 14,42 -5,48 -42,14 -243,110 -243,116 0,8 54,26 80,27 8,0 40,-6 70,-14 z m -4305,-60 c -8,-21 -23,-44 -33,-52 -40,-31 -135,-74 -223,-98 -52,-15 -113,-37 -137,-50 l -43,-24 -20,20 c -11,11 -19,22 -17,24 13,11 70,35 85,35 35,0 199,71 298,128 55,32 101,57 103,56 2,-1 -4,-19 -13,-39 z m 4204,-46 c 69,-28 128,-53 130,-55 9,-8 -55,-133 -71,-137 -19,-5 -130,-228 -219,-437 -29,-69 -54,-127 -56,-129 -6,-8 -261,49 -350,78 -48,16 -139,53 -201,82 l -112,54 25,54 c 36,77 92,140 209,233 55,44 104,87 108,93 10,17 92,65 110,65 8,0 36,14 64,32 55,35 214,118 228,118 5,0 66,-23 135,-51 z m 7721,-122 c 132,-89 218,-135 265,-142 22,-4 49,-13 60,-21 19,-14 19,-16 3,-25 -10,-6 -18,-17 -18,-26 0,-11 -5,-13 -17,-8 -10,4 -47,16 -83,26 -153,44 -318,159 -340,237 -14,52 -13,56 13,38 12,-9 65,-44 117,-79 z M 9284,11368 c 38,-68 82,-142 97,-164 l 28,-42 -45,-12 -46,-13 -27,33 c -14,18 -65,88 -113,154 l -87,121 47,22 c 26,13 54,23 62,23 10,0 43,-48 84,-122 z m 2619,-68 c -7,-59 3,-74 85,-127 l 52,-34 v -172 -172 l -32,-15 c -42,-20 -68,-57 -75,-106 -8,-60 12,-114 62,-171 44,-50 46,-55 52,-131 l 6,-79 -134,-5 c -92,-3 -146,-10 -172,-21 -35,-15 -38,-15 -45,1 -4,9 -7,226 -7,482 0,518 9,653 45,682 21,17 24,16 95,-32 l 74,-50 z m -274,46 c -2,-2 -24,-7 -49,-10 l -45,-6 45,18 c 25,10 47,14 49,9 1,-4 1,-10 0,-11 z m 1360,-285 c 87,-76 168,-136 296,-216 88,-55 89,-56 87,-93 -5,-72 103,-256 214,-366 l 64,-63 -22,-19 c -25,-23 -48,-74 -48,-109 0,-27 -12,-30 -69,-19 l -31,7 6,61 c 5,51 3,65 -11,79 -11,12 -22,14 -33,8 -9,-4 -21,-7 -27,-5 -5,2 -59,7 -120,12 -154,13 -371,-12 -540,-63 -85,-26 -125,-55 -125,-93 0,-26 3,-26 -73,-6 -33,8 -71,13 -83,10 -17,-5 -26,-1 -34,15 -7,11 -26,27 -45,34 -37,16 -40,25 -50,165 -7,85 -7,86 29,150 60,111 56,190 -13,241 l -31,23 v 109 c 0,99 2,108 18,103 37,-12 160,-35 218,-41 51,-6 63,-4 79,11 29,29 84,119 115,188 l 28,63 63,-59 c 34,-33 97,-90 138,-127 z m -5934,24 c 64,-188 173,-478 220,-586 24,-56 43,-104 42,-105 -1,-2 -65,-31 -142,-65 -77,-34 -149,-68 -160,-75 -29,-21 -45,-17 -102,22 -46,31 -53,41 -59,79 -14,94 31,464 76,635 30,109 72,222 80,213 4,-4 24,-57 45,-118 z m 4421,-389 c -74,-149 -205,-399 -290,-556 l -155,-285 -95,98 c -181,186 -300,371 -418,651 -83,194 -80,190 -104,194 -43,6 -63,-37 -116,-249 l -52,-204 -83,86 c -46,48 -124,122 -173,165 -83,72 -90,81 -90,115 0,33 3,37 30,42 235,48 1041,177 1435,231 l 240,32 3,-24 c 2,-16 -44,-119 -132,-296 z m -1920,218 c 38,-14 77,-33 88,-42 24,-22 148,-174 144,-178 -2,-1 -40,3 -85,9 -90,11 -117,3 -111,-37 3,-17 17,-23 90,-37 48,-10 111,-26 140,-36 29,-10 58,-18 64,-18 34,-1 282,-255 437,-447 171,-214 377,-549 493,-805 47,-104 49,-111 48,-193 -2,-97 -8,-132 -66,-399 l -42,-194 -126,7 c -69,3 -214,11 -323,16 -109,6 -203,7 -209,4 -6,-4 -9,-1 -6,6 2,8 38,28 79,45 50,22 75,38 78,51 1,10 9,26 16,34 8,8 18,27 23,41 13,34 -1,74 -196,534 -208,494 -242,575 -237,575 2,0 -8,30 -22,68 -14,37 -56,153 -93,257 -94,266 -126,343 -160,381 -16,18 -52,79 -81,135 -29,56 -68,122 -87,147 -38,50 -36,66 9,89 35,18 59,16 135,-13 z m 2792,-176 c 46,-44 14,-151 -77,-250 l -47,-51 -56,17 c -75,21 -163,100 -179,158 -13,48 -6,81 22,109 28,28 65,18 104,-26 45,-51 80,-51 89,-1 14,72 88,95 144,44 z m -1903,-165 c 54,-138 138,-301 216,-418 69,-103 239,-300 299,-346 l 34,-26 -71,-129 c -107,-192 -87,-189 -177,-25 -95,173 -223,368 -346,525 l -93,118 43,199 c 24,110 46,199 50,199 4,0 24,-44 45,-97 z m -1323,-10 c -84,-106 -194,-223 -284,-301 -55,-48 -106,-90 -113,-95 -14,-7 24,91 104,274 l 42,96 132,31 c 73,17 136,31 140,31 5,1 -5,-16 -21,-36 z m -402,-165 c -26,-62 -64,-158 -85,-213 -20,-55 -44,-108 -52,-117 -8,-9 -42,-35 -76,-58 l -62,-42 -160,6 c -161,6 -312,21 -570,57 -139,19 -165,29 -165,65 0,29 520,215 900,322 217,61 314,89 316,91 1,1 -20,-50 -46,-111 z m 4700,-165 c 0,-81 -22,-285 -45,-431 -14,-84 -25,-159 -25,-166 0,-17 23,-27 39,-16 20,12 70,231 83,363 l 12,117 h 71 c 81,0 95,9 95,60 0,50 20,83 57,93 26,8 37,5 62,-12 41,-29 194,-101 216,-101 12,0 15,-5 11,-17 -41,-105 -146,-454 -146,-483 0,-13 -11,-19 -52,-24 -29,-3 -63,-6 -76,-6 -21,0 -21,2 -8,23 19,28 96,223 96,241 0,16 -22,27 -37,18 -6,-4 -38,-63 -71,-132 -33,-69 -67,-133 -74,-142 -37,-44 -1156,-87 -1665,-63 -112,5 -163,11 -163,19 0,7 -29,31 -64,54 -91,59 -248,228 -285,305 -17,34 -27,65 -23,69 10,10 159,46 222,54 30,4 62,10 71,15 12,6 20,-1 33,-29 50,-105 149,-237 197,-263 21,-11 49,-2 49,17 0,7 -20,36 -45,64 -56,64 -79,99 -146,229 -41,82 -49,105 -38,111 56,35 444,21 577,-21 53,-17 57,-34 57,-244 0,-173 2,-190 17,-193 12,-2 21,5 27,21 13,34 34,294 27,333 l -6,32 37,-14 c 21,-7 56,-13 78,-14 h 41 l 16,-82 c 21,-108 95,-315 115,-323 9,-3 21,-1 27,5 11,11 12,7 -48,209 -20,69 -39,158 -43,198 l -6,72 29,11 c 108,42 363,78 552,79 l 152,1 z M 9219,8975 c 19,-373 37,-509 82,-630 26,-71 96,-144 154,-164 56,-19 323,-26 473,-12 68,7 125,11 127,9 2,-2 -55,-100 -126,-218 -71,-118 -132,-222 -137,-230 -5,-8 -27,-21 -48,-29 -21,-8 -102,-44 -179,-82 -104,-51 -143,-65 -156,-58 -34,18 -70,8 -172,-44 -203,-105 -483,-312 -649,-478 -94,-96 -123,-132 -154,-193 -34,-70 -36,-80 -31,-136 4,-34 17,-83 30,-110 l 24,-49 -126,-30 c -197,-47 -274,-59 -456,-76 -389,-35 -641,-6 -855,97 -98,47 -182,125 -220,203 -23,45 -25,62 -24,170 0,100 4,129 23,178 21,53 27,60 84,88 160,80 281,188 350,311 46,83 67,162 67,255 0,121 -43,191 -134,218 -252,75 -616,-154 -747,-471 l -24,-56 -100,7 c -243,17 -426,84 -560,206 -74,69 -110,127 -146,238 -30,92 -31,101 -25,218 9,191 45,338 127,513 158,336 439,631 937,983 l 94,67 32,-25 c 103,-78 481,-153 922,-181 l 101,-7 54,-91 c 153,-258 374,-569 468,-659 66,-63 85,-61 88,13 10,226 42,472 84,652 l 20,86 107,7 c 124,8 240,28 277,48 39,20 131,140 231,302 l 89,143 7,-382 c 3,-209 11,-480 17,-601 z m -819,465 c 0,-6 -11,-65 -24,-133 -31,-158 -56,-351 -56,-438 0,-38 -4,-69 -10,-69 -19,0 -213,291 -409,613 l -23,37 h 261 c 170,0 261,-4 261,-10 z m 1708,-395 c 56,-132 103,-252 107,-266 6,-23 0,-30 -47,-61 -56,-37 -93,-58 -102,-58 -3,0 -6,16 -6,35 0,42 -58,571 -66,600 -12,46 18,-20 114,-250 z m 4498,-236 c 19,-37 18,-103 -2,-192 -22,-94 -29,-73 -39,108 -7,130 -6,138 10,125 9,-7 23,-26 31,-41 z m 1140,-1494 c 91,-90 114,-118 124,-154 17,-63 3,-87 -106,-187 l -94,-86 v 32 c 0,73 -65,431 -96,534 -6,17 -3,17 27,-5 19,-13 84,-73 145,-134 z m -169,-1097 23,-24 -35,-34 -35,-34 v 36 c 0,19 -3,50 -6,68 -6,29 -5,31 12,22 10,-6 29,-21 41,-34 z m 204,-186 c 136,-119 288,-244 392,-321 31,-24 57,-48 57,-55 -1,-29 -355,-436 -380,-436 -9,0 -120,170 -202,310 l -56,95 -26,218 -26,219 47,43 c 27,25 51,44 54,45 3,0 66,-53 140,-118 z m 1756,-260 c 45,-33 70,-60 92,-101 l 29,-56 -5,-233 c -7,-272 0,-273 -95,18 -33,101 -84,246 -113,322 l -53,137 42,-21 c 22,-11 69,-41 103,-66 z m -1134,-231 c 104,-73 272,-182 377,-245 25,-14 65,-44 89,-65 l 44,-39 -70,-99 c -89,-124 -204,-253 -368,-412 l -128,-125 -44,50 c -62,70 -278,352 -352,459 l -62,91 77,79 c 90,94 211,236 274,322 25,34 46,62 48,62 2,1 53,-34 115,-78 z m -655,-289 c 21,-31 42,-62 46,-69 4,-8 -19,-33 -60,-67 -37,-31 -69,-54 -71,-52 -2,1 -12,75 -23,162 -11,87 -22,179 -25,204 l -6,45 50,-83 c 28,-45 68,-108 89,-140 z m 1327,-208 c 50,-43 123,-106 163,-139 l 72,-59 v -78 c 0,-93 -26,-170 -122,-356 -62,-123 -201,-339 -261,-407 l -35,-40 -118,120 c -121,123 -363,386 -376,410 -5,9 47,68 160,182 158,158 282,303 362,420 29,43 37,49 50,39 8,-7 56,-48 105,-92 z m 228,-14 c 5,-4 7,-29 5,-56 l -3,-48 -105,91 c -59,50 -112,98 -119,106 -11,14 203,-76 222,-93 z m -1418,23 c 58,-88 166,-233 292,-391 91,-115 112,-146 103,-157 -29,-35 -434,-325 -453,-325 -11,0 -29,68 -57,215 -27,137 -100,567 -100,587 0,4 21,22 48,39 26,18 62,45 80,61 18,15 36,28 41,28 4,0 25,-26 46,-57 z m 1411,-650 c -11,-149 -57,-717 -59,-720 -4,-3 -118,85 -207,161 l -90,76 49,63 c 84,107 190,277 249,399 31,64 59,117 61,118 2,0 0,-44 -3,-97 z m -855,-53 c 46,-52 157,-170 247,-262 l 164,-167 -20,-28 c -26,-37 -228,-232 -310,-301 -35,-28 -71,-52 -80,-52 -203,-6 -361,-5 -378,1 -11,4 -54,58 -94,119 l -73,112 -35,166 c -33,157 -33,167 -17,177 82,47 327,218 400,278 66,55 93,71 101,63 6,-6 49,-54 95,-106 z m 5864,53 c -38,-67 -202,-225 -315,-305 -52,-36 -151,-101 -221,-143 l -127,-76 -68,3 -68,3 369,264 c 354,254 445,315 453,306 3,-2 -8,-26 -23,-52 z m -5345,-579 c 67,-57 205,-164 243,-188 24,-15 28,-23 25,-54 l -3,-37 -245,-2 c -135,-1 -271,-4 -302,-6 -123,-9 -124,-13 55,167 89,90 165,164 168,164 3,1 30,-19 59,-44 z m 2037,-119 c 228,-41 495,-121 638,-192 83,-42 105,-59 105,-85 0,-63 -250,-198 -366,-198 -19,0 -45,-6 -57,-14 -34,-22 -178,-38 -191,-22 -67,82 -110,151 -200,321 -58,110 -106,203 -106,208 0,11 26,9 177,-18 z m -3028,-174 c -13,-4 -15,-2 -23,29 l -7,25 20,-25 c 11,-14 15,-27 10,-29 z m 296,-985 c 72,-34 193,-66 248,-66 h 40 l -7,-52 c -4,-29 -9,-91 -13,-137 l -6,-83 -37,6 c -62,10 -135,37 -207,76 l -68,37 3,60 c 1,32 -4,90 -12,127 -7,37 -11,65 -7,63 3,-1 33,-16 66,-31 z m -3290,-100 c 95,-25 239,-46 316,-46 h 46 l 10,-117 c 6,-65 8,-122 5,-127 -5,-9 -154,-1 -247,15 -33,5 -94,21 -135,35 l -75,24 -23,103 c -12,56 -25,113 -29,126 -6,22 -4,23 18,17 13,-4 65,-18 114,-30 z m 3475,-526 c 78,-78 86,-92 74,-124 -5,-12 -14,-6 -43,28 -58,68 -116,116 -143,116 -24,0 -70,-40 -81,-72 -20,-57 98,-205 205,-257 37,-17 56,-31 48,-36 -16,-10 -126,47 -182,95 -26,22 -65,68 -88,102 -45,68 -46,87 -9,160 22,43 60,67 106,68 27,0 45,-13 113,-80 z m -3098,-1 c 73,-24 141,-67 146,-93 3,-13 -9,-8 -48,20 -40,29 -64,39 -104,42 -49,4 -54,2 -84,-32 -41,-47 -50,-94 -26,-142 41,-82 170,-143 304,-144 52,0 70,-3 60,-10 -38,-24 -197,5 -311,57 -124,56 -166,127 -135,227 30,98 76,116 198,75 z m 392,-20 c 50,-59 29,-117 -82,-231 -52,-54 -60,-58 -102,-58 -90,0 -216,45 -266,95 -41,41 -28,116 22,135 33,13 82,-8 150,-64 72,-59 94,-55 136,28 40,82 75,126 98,126 10,0 30,-14 44,-31 z m 2680,-79 c 72,-76 96,-93 96,-70 0,6 6,10 13,10 6,0 25,20 40,45 64,100 130,122 174,56 29,-43 21,-58 -65,-121 -94,-70 -159,-103 -185,-96 -53,13 -197,160 -197,200 0,19 26,56 40,56 4,0 42,-36 84,-80 z m -3448,-61 c 16,-17 61,-55 99,-84 150,-115 306,-175 451,-175 h 72 l 59,-107 c 32,-60 59,-113 61,-119 2,-6 -29,-15 -75,-22 -232,-34 -363,-24 -511,39 -51,22 -110,43 -130,47 -31,7 -40,16 -64,61 -27,51 -28,60 -28,191 0,207 8,229 66,169 z m 3294,-110 c 42,-42 89,-77 132,-98 62,-31 73,-33 126,-27 l 59,7 121,-113 120,-113 -54,-28 c -96,-49 -226,-87 -295,-87 -83,0 -140,27 -245,117 -45,38 -96,75 -114,83 l -33,13 7,71 c 3,39 16,127 28,195 l 22,125 30,-40 c 17,-21 60,-69 96,-105 z"
       id="path2" />
    <path
       d="m 14631,30636 c 6,-26 189,-109 206,-94 11,9 11,14 -2,28 -21,23 -125,70 -171,77 -31,5 -35,3 -33,-11 z"
       id="path4" />
    <path
       d="m 12574,29375 c -11,-26 12,-180 42,-281 27,-96 112,-280 195,-427 210,-369 492,-672 839,-900 303,-199 755,-361 1192,-428 167,-26 494,-31 663,-10 695,85 1276,396 1631,874 90,120 136,201 175,307 31,87 48,193 32,203 -6,4 -25,-17 -43,-46 -147,-229 -585,-496 -1014,-616 -248,-70 -596,-108 -891,-97 -555,20 -1076,124 -1555,311 -325,126 -776,390 -958,560 -66,61 -169,182 -191,222 -6,12 -29,90 -50,174 -40,154 -54,188 -67,154 z m 416,-706 c 484,-373 1143,-629 1870,-728 286,-39 377,-45 640,-45 341,0 545,26 823,105 326,92 691,290 880,477 l 68,67 -30,-68 c -61,-135 -248,-379 -383,-499 -438,-390 -1015,-601 -1638,-601 -289,0 -477,30 -815,127 -230,66 -361,117 -523,201 -382,199 -702,498 -981,915 -45,67 -98,154 -118,194 l -35,71 78,-76 c 44,-41 117,-105 164,-140 z"
       id="path6" />
    <path
       d="m 12946,28108 c -4,-13 -11,-117 -16,-233 -33,-680 129,-1621 397,-2305 63,-159 250,-530 268,-530 8,0 15,1 15,3 0,2 -42,93 -94,203 -185,393 -291,708 -391,1156 -101,449 -135,767 -142,1326 -4,314 -8,402 -18,402 -7,0 -16,-10 -19,-22 z"
       id="path8" />
    <path
       d="m 12325,23674 c -11,-3 -30,-7 -42,-10 -55,-11 -13,-22 110,-27 261,-10 509,-96 785,-274 84,-54 107,-63 100,-40 -7,23 -179,144 -276,195 -119,61 -215,96 -352,128 -99,23 -281,39 -325,28 z"
       id="path10" />
    <path
       d="m 16521,23665 c -139,-31 -292,-93 -402,-166 -44,-28 -79,-58 -79,-65 0,-8 2,-14 4,-14 2,0 76,35 164,79 150,73 289,125 409,152 29,7 50,16 47,21 -7,12 -69,9 -143,-7 z"
       id="path12" />
    <path
       d="m 14164,19998 c -11,-18 59,-73 118,-92 119,-38 227,-51 443,-51 174,0 224,3 288,19 107,26 221,84 225,114 4,28 -19,29 -56,4 -51,-35 -165,-73 -266,-88 -192,-30 -552,-3 -652,49 -16,8 -38,24 -48,36 -21,23 -41,27 -52,9 z"
       id="path14" />
    <path
       d="m 20011,19806 c -20,-24 -5,-233 100,-1366 6,-69 14,-226 18,-350 l 6,-225 h 30 c 28,0 32,5 68,90 212,495 227,830 60,1340 -52,156 -227,518 -254,523 -9,2 -21,-4 -28,-12 z m 149,-363 c 0,-6 -13,-16 -29,-21 l -29,-10 -7,71 c -3,40 -8,86 -10,102 -3,20 9,3 35,-50 22,-44 40,-85 40,-92 z m 47,-1345 c -3,-8 -6,-5 -6,6 -1,11 2,17 5,13 3,-3 4,-12 1,-19 z"
       id="path16" />
    <path
       d="m 14606,18378 c -44,-58 -88,-150 -77,-161 6,-6 12,-9 15,-6 15,16 116,181 116,189 0,21 -30,9 -54,-22 z"
       id="path18" />
    <path
       d="m 14704,17796 c -21,-18 -28,-32 -28,-61 0,-86 106,-102 154,-23 49,81 -52,148 -126,84 z"
       id="path20" />
    <path
       d="m 14175,17688 c -25,-7 -58,-29 -90,-62 -63,-63 -85,-130 -85,-260 0,-167 65,-330 174,-439 47,-47 62,-68 55,-78 -17,-27 -10,-77 16,-107 32,-38 72,-48 119,-28 l 36,15 v -78 c 0,-81 3,-93 25,-85 9,4 16,33 20,79 l 7,74 27,-13 c 54,-28 105,-24 142,13 33,33 40,90 14,111 -8,7 -15,15 -15,19 0,4 28,27 61,51 171,124 300,337 301,495 1,109 -40,182 -127,228 -74,39 -187,21 -257,-41 -17,-14 -18,-13 -18,7 0,30 -25,77 -45,85 -47,18 -94,-9 -110,-62 l -7,-23 -20,26 c -48,61 -147,94 -223,73 z m 146,-197 29,-30 -20,-33 c -28,-47 -26,-84 9,-119 32,-32 79,-38 125,-18 19,9 29,8 47,-5 68,-47 179,12 179,95 0,50 75,90 108,57 7,-7 12,-35 12,-63 0,-64 -40,-148 -105,-220 l -44,-50 -1,32 c -1,79 -99,94 -179,27 l -29,-24 -40,40 c -32,33 -47,40 -78,40 -42,0 -84,-31 -84,-61 0,-41 -20,-24 -46,39 -48,118 -36,276 23,311 31,18 64,12 94,-18 z m -199,-153 c 3,-13 11,-50 17,-83 23,-127 120,-268 227,-331 47,-28 58,-60 29,-84 -8,-7 -15,-21 -15,-31 0,-25 -43,-52 -69,-44 -27,8 -37,47 -22,83 11,27 9,31 -63,104 -108,110 -175,263 -176,401 v 49 l 33,-20 c 17,-12 35,-31 39,-44 z m 770,-102 c -17,-36 -45,-87 -63,-113 -35,-52 -167,-193 -180,-193 -5,0 -16,14 -24,30 l -16,31 80,75 c 44,41 99,103 121,137 37,56 97,113 108,102 2,-2 -9,-33 -26,-69 z m -491,-116 c 26,-27 52,-50 57,-50 6,0 18,10 26,21 22,33 67,59 100,59 28,0 28,-1 23,-42 -6,-49 -39,-82 -130,-135 l -56,-31 -35,26 c -35,26 -96,130 -96,163 0,21 20,39 44,39 11,0 41,-22 67,-50 z"
       id="path22" />
  </g>
</svg>
