<?xml version="1.0" standalone="no"?>
<!DOCTYPE svg PUBLIC "-//W3C//DTD SVG 20010904//EN"
 "http://www.w3.org/TR/2001/REC-SVG-20010904/DTD/svg10.dtd">
<svg version="1.0" xmlns="http://www.w3.org/2000/svg"
 width="857.000000pt" height="933.000000pt" viewBox="0 0 857.000000 933.000000"
 preserveAspectRatio="xMidYMid meet">

<g transform="translate(0.000000,933.000000) scale(0.100000,-0.100000)"
fill="#000000" stroke="none">
<path d="M3681 9319 c-558 -35 -1083 -260 -1521 -652 -52 -46 -119 -112 -148
-145 l-52 -61 -73 34 c-69 33 -230 75 -288 75 -48 0 -54 -19 -54 -180 l0 -147
-62 -66 c-58 -62 -62 -70 -82 -155 -25 -105 -27 -172 -6 -211 l14 -29 -77 -27
c-102 -36 -187 -80 -239 -121 -56 -46 -162 -179 -226 -284 l-51 -85 -9 45 c-4
25 -6 128 -3 230 6 248 26 330 113 464 67 103 167 200 247 237 61 29 75 31
174 32 99 0 103 1 52 9 -97 16 -198 6 -260 -28 -104 -56 -225 -196 -292 -339
-55 -120 -69 -279 -47 -541 l11 -130 -36 -93 c-72 -179 -114 -406 -103 -550 4
-42 18 -116 32 -166 13 -49 25 -117 25 -150 0 -89 15 -170 71 -380 50 -187 53
-195 214 -525 213 -438 283 -622 315 -836 54 -353 -50 -593 -415 -960 -93 -94
-265 -250 -382 -347 -116 -97 -224 -194 -241 -214 -46 -59 -147 -213 -172
-263 -59 -116 -103 -301 -103 -430 0 -278 194 -545 460 -634 82 -27 303 -76
338 -75 11 0 -43 14 -119 30 -232 50 -333 97 -446 211 -121 121 -192 289 -193
458 0 170 61 375 165 547 84 141 110 169 332 356 226 190 499 459 585 576 165
224 222 377 222 594 0 273 -79 522 -336 1057 -131 274 -132 278 -184 480 -57
227 -65 287 -58 463 6 166 27 296 82 503 43 163 72 242 132 356 55 104 198
299 231 313 12 5 22 16 22 23 0 11 84 72 100 72 3 0 4 -20 2 -44 -4 -40 -1
-45 30 -64 19 -12 64 -27 102 -34 l67 -13 -7 -60 c-12 -95 -7 -345 10 -525 8
-91 20 -219 26 -285 14 -161 54 -377 104 -567 24 -87 40 -158 37 -158 -9 0
-169 282 -242 425 -101 201 -183 445 -225 670 -15 79 -19 148 -19 328 0 125
-1 224 -2 220 -10 -34 -44 -272 -54 -370 -19 -200 19 -490 95 -718 34 -102
166 -408 173 -402 2 2 -10 34 -26 70 -47 104 -138 356 -160 443 -55 211 -87
568 -63 684 9 41 10 36 11 -51 2 -226 100 -587 226 -840 55 -108 173 -313 256
-444 37 -58 74 -135 104 -217 50 -135 166 -381 232 -488 21 -36 42 -72 45 -80
3 -8 63 -114 133 -235 124 -215 127 -222 143 -315 10 -59 16 -161 16 -270 1
-157 -1 -183 -22 -250 -44 -139 -122 -264 -251 -402 -99 -106 -157 -146 -266
-183 -101 -35 -190 -89 -234 -141 -68 -83 -93 -174 -111 -395 -12 -151 -7
-232 36 -619 20 -176 27 -307 34 -600 4 -206 10 -382 13 -390 3 -8 8 -53 11
-100 l5 -85 -24 54 c-52 112 -108 175 -238 267 -177 126 -177 126 -177 120 0
-2 56 -46 125 -96 188 -138 266 -233 301 -371 18 -70 22 -378 11 -879 -3 -171
-2 -212 3 -125 4 72 13 301 21 510 11 344 11 405 -4 625 -10 135 -22 389 -27
565 -5 176 -16 381 -24 455 -36 325 -47 521 -36 650 23 286 65 383 200 470
108 69 304 108 460 90 163 -18 302 -44 307 -56 7 -20 -67 -122 -218 -300 -190
-223 -227 -273 -297 -405 -91 -172 -115 -246 -116 -354 0 -83 2 -96 35 -165
50 -104 136 -215 298 -381 l139 -143 18 -112 c13 -84 15 -119 7 -136 -6 -13
-62 -93 -124 -178 -145 -199 -321 -473 -370 -575 -21 -44 -49 -115 -63 -158
-25 -78 -78 -333 -91 -437 -3 -30 -9 -63 -11 -72 -3 -11 0 -18 9 -18 11 0 18
22 26 83 37 256 96 477 163 612 50 98 215 350 328 501 59 77 121 162 140 190
39 59 60 77 123 110 l47 24 148 -36 c295 -72 356 -116 356 -254 0 -104 -26
-142 -157 -234 -72 -51 -138 -126 -168 -191 -38 -82 -16 -199 49 -269 25 -27
161 -100 170 -92 2 2 13 39 23 82 11 43 29 94 39 113 31 61 160 176 261 234
166 95 232 245 181 413 -50 165 -178 311 -439 503 -125 91 -188 178 -239 326
-23 67 -28 102 -32 215 l-4 135 74 95 c123 157 200 277 278 432 41 81 75 146
77 144 2 -2 15 -59 29 -127 59 -290 150 -580 239 -764 58 -119 257 -426 395
-610 41 -55 124 -148 184 -207 l108 -107 -71 -45 c-39 -25 -76 -46 -81 -46
-11 0 -74 85 -478 640 -311 428 -317 437 -306 405 4 -11 4 -17 -1 -13 -4 4 -8
15 -9 25 -1 19 -76 132 -88 133 -12 0 69 -186 172 -395 80 -163 116 -223 194
-327 53 -70 101 -130 108 -134 6 -4 -17 30 -52 76 -35 46 -93 131 -128 189
-72 118 -229 428 -220 436 3 3 41 -56 84 -132 141 -250 196 -337 281 -444 46
-59 91 -113 100 -120 9 -8 -19 33 -63 91 -114 150 -384 584 -371 596 2 3 43
-48 89 -113 47 -65 212 -296 368 -513 156 -217 285 -401 287 -410 2 -9 -21
-31 -64 -60 -156 -104 -394 -321 -498 -455 -104 -133 -117 -158 -105 -189 28
-75 269 -265 431 -340 82 -38 227 -71 356 -82 98 -8 89 -25 97 188 6 138 32
379 58 527 10 63 11 64 24 38 8 -14 22 -28 31 -31 37 -11 198 -4 223 9 23 12
26 11 46 -18 63 -94 245 -408 339 -587 170 -324 161 -286 -20 85 -71 145 -137
263 -215 380 l-112 169 22 96 c17 69 24 134 27 239 l3 143 61 66 c135 148 224
368 350 871 37 150 70 276 73 278 12 13 241 -37 303 -66 81 -39 110 -63 134
-116 41 -88 16 -141 -118 -259 -163 -142 -225 -243 -244 -402 -12 -94 -6 -249
12 -334 6 -28 9 -53 7 -54 -1 -2 -57 3 -123 11 -105 12 -139 11 -270 -2 -82
-9 -153 -17 -158 -18 -4 -1 95 -2 220 -2 126 0 254 -4 286 -8 57 -8 58 -9 83
-60 63 -124 175 -250 257 -287 57 -26 111 -25 175 5 28 13 52 20 52 16 0 -14
-148 -241 -205 -316 -30 -38 -104 -124 -165 -190 -153 -165 -193 -223 -241
-350 -47 -125 -47 -153 1 -36 46 114 110 206 266 376 75 83 158 182 184 220
75 112 202 338 193 345 -4 4 -25 13 -46 20 -59 18 -95 55 -112 113 -18 62 -45
218 -45 266 l0 34 168 -6 c235 -8 347 -36 509 -129 55 -31 75 -48 79 -67 11
-58 53 -119 154 -225 135 -142 174 -192 255 -326 119 -198 185 -364 229 -580
13 -65 29 -116 36 -118 16 -6 8 49 -31 211 -71 291 -229 578 -444 807 -137
146 -165 189 -165 251 0 54 8 77 62 169 56 98 117 252 144 370 32 142 29 160
-6 30 -38 -143 -98 -288 -158 -388 -28 -46 -56 -99 -62 -118 -6 -19 -14 -34
-17 -34 -3 0 -31 15 -62 34 -84 51 -150 82 -211 100 -80 25 -250 46 -369 46
l-103 0 6 33 c8 41 48 123 85 174 16 23 75 78 130 123 56 45 109 93 118 106 9
14 44 44 77 66 171 115 252 227 301 414 51 196 -42 430 -217 546 -29 19 -106
70 -171 113 -128 83 -335 251 -393 318 -47 55 -89 137 -71 137 8 0 46 -13 85
-29 94 -39 526 -181 682 -225 69 -19 249 -60 400 -91 151 -30 309 -65 350 -76
208 -56 341 -193 386 -394 21 -98 30 -444 15 -571 -7 -55 -33 -191 -57 -303
-120 -545 -132 -635 -159 -1231 -24 -551 -26 -594 -20 -588 3 3 12 133 20 289
25 492 27 510 40 505 10 -3 10 2 2 24 -8 21 -6 75 7 212 23 239 44 367 116
693 81 372 84 396 84 660 1 185 -3 247 -17 314 -31 145 -102 258 -211 335 -97
70 -141 82 -571 166 -143 27 -285 57 -315 65 -30 9 -66 18 -80 21 -121 24
-747 231 -770 254 -31 31 -45 150 -45 375 1 219 9 298 61 570 19 97 38 158 74
240 60 136 130 339 161 468 12 53 25 97 28 97 4 -1 31 -40 61 -88 148 -235
178 -262 590 -534 191 -126 249 -170 311 -235 65 -68 78 -88 88 -131 23 -110
-45 -230 -226 -398 -184 -170 -277 -267 -299 -311 -15 -30 -19 -64 -20 -168
l-2 -130 8 105 c4 58 15 126 24 151 22 59 88 133 271 299 243 220 316 364 255
498 -40 89 -129 163 -445 375 -345 230 -421 298 -544 481 -63 94 -72 114 -67
140 4 17 15 99 26 182 16 121 26 165 51 220 91 201 154 419 164 567 3 45 8
107 10 137 3 33 2 50 -3 42 -6 -9 -13 7 -21 48 -14 72 -38 127 -59 135 -26 10
-100 -31 -117 -65 -9 -18 -18 -30 -21 -28 -2 3 -11 72 -19 154 -36 340 -78
579 -136 776 -36 120 -107 305 -154 398 -33 66 -171 280 -180 280 -2 0 23 -42
56 -92 108 -165 213 -400 278 -629 59 -206 83 -376 125 -884 37 -444 39 -510
26 -740 -17 -315 -53 -558 -117 -780 -65 -226 -256 -685 -229 -550 26 133 36
686 16 946 -32 411 -103 728 -223 994 -74 165 -246 469 -363 644 -24 36 -42
67 -39 69 2 2 27 -1 56 -7 28 -6 54 -10 56 -7 5 4 -116 35 -157 40 -14 2 -31
4 -37 4 -7 1 -87 151 -178 332 -91 182 -167 330 -169 330 -3 0 67 -146 155
-324 87 -178 159 -325 159 -327 0 -2 -68 -4 -151 -4 l-151 0 -85 115 c-130
177 -260 391 -502 820 l-31 55 0 -305 c0 -211 5 -347 16 -440 22 -194 153
-842 279 -1377 73 -311 85 -380 64 -368 -55 32 -248 195 -373 315 -132 127
-238 255 -356 431 -175 262 -204 317 -253 489 -92 321 -130 591 -147 1045 -7
191 -8 180 -5 -115 4 -394 16 -501 90 -800 43 -172 131 -444 201 -617 63 -157
112 -247 258 -472 58 -90 106 -168 106 -173 0 -18 -43 16 -124 95 -210 210
-397 481 -521 756 -49 110 -52 121 -31 121 7 0 21 -21 31 -47 28 -75 162 -338
217 -427 51 -83 160 -221 245 -311 55 -58 48 -49 -69 92 -46 55 -105 132 -131
171 -95 141 -270 492 -254 508 3 4 20 1 37 -4 17 -6 28 -7 25 -2 -3 4 -19 11
-35 15 -41 9 -53 30 -95 170 -71 234 -117 518 -135 830 l-9 150 5 -165 c7
-280 53 -570 132 -832 30 -98 36 -128 25 -128 -33 0 -96 216 -163 560 -21 107
-39 185 -39 173 -2 -39 78 -454 109 -573 17 -63 33 -124 36 -135 5 -19 0 -20
-84 -21 -136 -2 -170 -12 -356 -102 -35 -17 83 523 188 860 45 146 59 201 30
123 -32 -83 -147 -476 -184 -625 -21 -85 -47 -206 -56 -269 l-17 -113 -41 -29
c-60 -43 -118 -95 -86 -78 14 7 28 12 33 11 4 -1 7 4 7 10 0 14 62 58 81 58 7
0 9 -8 4 -22 -4 -13 -9 -196 -12 -408 -4 -272 -9 -387 -17 -392 -8 -6 -7 -8 2
-8 10 0 13 -15 12 -52 -2 -29 0 -60 3 -68 3 -8 13 -67 22 -130 23 -164 62
-333 96 -418 32 -80 95 -183 170 -278 27 -34 49 -65 49 -69 0 -10 -48 30 -131
110 -75 73 -77 76 -122 198 -123 334 -165 616 -168 1127 -2 256 -3 278 -10
170 -22 -335 -8 -654 37 -894 8 -43 13 -80 10 -83 -6 -7 -141 262 -196 392
-141 330 -287 898 -320 1245 l-9 95 4 -105 c6 -146 37 -316 105 -585 105 -412
188 -638 350 -950 84 -163 198 -463 165 -435 -30 25 -111 160 -172 286 -36 74
-67 133 -70 130 -11 -11 149 -316 227 -435 45 -68 110 -178 145 -246 34 -67
84 -155 110 -196 26 -41 55 -85 63 -99 24 -39 -198 182 -312 310 -217 245
-331 421 -456 705 -146 329 -259 780 -291 1154 -15 175 -7 460 16 589 9 52 15
95 13 98 -2 2 -14 -49 -27 -114 -38 -198 -39 -199 -40 -37 -1 167 12 265 57
436 71 263 160 470 280 650 271 404 831 775 1372 908 215 53 328 65 595 65
457 0 791 -64 1131 -217 144 -64 384 -194 384 -208 0 -18 72 -88 129 -125 l58
-38 6 -70 c9 -100 59 -199 147 -287 37 -37 77 -70 88 -73 26 -9 38 -47 86
-265 127 -576 130 -754 22 -1306 -14 -71 -26 -134 -26 -139 0 -35 16 35 67
279 l57 280 0 195 c1 193 -7 258 -59 516 -6 28 -4 32 35 49 46 21 121 99 151
157 33 65 26 102 -32 163 -28 30 -72 66 -96 81 l-45 26 36 37 c69 71 83 177
40 307 -41 127 -58 146 -166 188 l-38 15 0 120 c0 134 -3 149 -36 161 -31 12
-82 -3 -188 -57 -125 -63 -203 -118 -223 -158 l-18 -34 -70 41 c-122 72 -416
215 -520 253 -186 69 -460 117 -765 135 -96 5 -182 9 -190 8 -8 0 -71 -4 -139
-9z m2118 -218 c6 -11 12 -82 13 -160 2 -77 6 -141 11 -141 4 0 7 9 7 20 0 24
9 25 57 5 50 -21 71 -41 98 -95 33 -66 46 -123 47 -205 0 -106 -30 -154 -134
-210 -43 -23 -52 -25 -83 -15 -47 15 -163 141 -203 221 -40 79 -54 165 -27
171 12 2 -5 18 -54 51 -146 100 -166 155 -77 216 64 44 293 161 315 161 11 0
25 -9 30 -19z m-4066 -590 c62 -16 133 -39 160 -50 l47 -20 -52 -74 c-29 -40
-75 -114 -103 -165 -46 -84 -53 -92 -80 -92 -43 0 -105 19 -137 42 -16 11 -28
17 -28 14 0 -3 19 -19 42 -36 32 -24 51 -30 90 -30 56 0 58 -5 26 -76 -12 -27
-38 -98 -59 -159 l-37 -110 -55 -3 c-50 -3 -59 0 -91 28 -19 18 -39 46 -44 63
-11 40 1 143 26 223 20 64 66 135 85 131 6 -1 21 23 34 53 21 51 23 64 17 173
l-7 117 27 0 c15 0 77 -13 139 -29z m4305 -276 c33 -30 68 -72 77 -92 17 -35
17 -38 -3 -77 -27 -55 -86 -122 -134 -153 -22 -13 -41 -23 -43 -21 -5 5 -96
360 -93 363 2 1 26 14 53 28 59 29 60 29 143 -48z m-2244 -328 c163 -304 235
-422 378 -615 37 -50 68 -96 68 -101 0 -5 -14 -11 -31 -15 -78 -15 -312 -140
-336 -179 -7 -12 4 -6 75 45 60 41 171 90 258 113 32 8 58 14 59 12 90 -115
251 -295 397 -443 152 -154 186 -193 175 -202 -31 -26 -102 -42 -186 -42 -258
0 -457 -140 -525 -369 -23 -78 -19 -85 8 -18 14 32 36 76 50 98 31 46 119 137
162 167 42 29 166 69 241 77 l61 7 34 -59 c71 -121 98 -232 98 -398 0 -187
-64 -285 -187 -285 -47 0 -135 40 -169 77 -69 74 -122 233 -133 401 l-8 117
-2 -131 c-1 -109 3 -144 20 -200 60 -194 157 -287 301 -287 69 0 110 24 157
94 46 67 58 155 43 309 -14 138 -42 225 -97 299 -20 29 -35 54 -33 56 7 7 115
-23 151 -41 53 -28 123 -91 155 -142 46 -71 62 -140 63 -266 0 -132 17 -115
26 27 3 49 10 84 15 79 11 -11 55 -206 69 -307 6 -44 14 -145 18 -225 8 -141
8 -142 9 -44 3 193 -21 417 -59 547 l-20 67 28 25 c15 13 31 25 34 25 10 0 69
-267 89 -398 38 -264 45 -371 45 -752 0 -406 -9 -507 -61 -715 -35 -143 -75
-219 -258 -495 -89 -135 -179 -272 -199 -306 -46 -77 -107 -230 -143 -359 -34
-121 -38 -262 -11 -334 10 -24 15 -46 13 -48 -2 -2 -29 20 -59 49 -129 127
-167 308 -113 534 48 195 73 254 229 525 128 224 229 409 272 500 36 76 198
529 191 536 -2 2 -16 -32 -31 -74 -75 -209 -203 -509 -212 -499 -3 2 8 53 22
113 42 168 85 367 80 371 -9 9 -49 -147 -87 -340 -32 -162 -48 -219 -70 -259
-16 -28 -31 -49 -33 -47 -4 5 29 193 72 408 37 185 37 185 90 262 54 77 186
338 199 393 12 51 -6 21 -56 -94 -103 -236 -170 -329 -412 -567 -191 -188
-265 -248 -485 -390 -146 -94 -149 -95 -198 -90 -137 14 -773 249 -936 346
-156 93 -283 219 -531 529 -119 147 -142 188 -174 311 -20 77 -64 328 -64 368
0 29 3 33 22 30 18 -2 24 -12 30 -46 11 -64 65 -158 121 -208 27 -24 54 -44
60 -44 7 0 -5 14 -25 30 -44 36 -82 113 -97 194 -16 85 -14 125 10 201 26 85
78 143 168 188 62 30 71 32 176 32 135 -1 197 -18 284 -79 36 -25 67 -43 70
-40 7 7 -63 67 -114 99 -97 59 -285 72 -411 30 -81 -27 -115 -31 -145 -15 -31
17 -22 1 11 -19 l31 -18 -31 -26 c-37 -31 -90 -43 -120 -27 -12 6 -24 9 -27 7
-7 -7 52 -37 72 -37 9 0 15 -3 13 -7 -2 -5 -10 -21 -18 -38 -18 -37 -28 -45
-62 -45 -25 0 -27 4 -34 58 -7 60 3 622 14 732 l7 65 50 27 c76 41 218 78 323
85 l92 6 17 -44 c63 -163 210 -424 324 -577 122 -162 347 -382 392 -382 24 0
12 25 -92 193 -144 231 -217 378 -286 568 -30 84 -19 77 45 -26 180 -292 388
-515 724 -772 86 -67 106 -75 106 -43 0 42 -32 231 -65 380 -18 85 -57 261
-85 390 -146 668 -191 927 -210 1205 -12 195 -13 463 -1 450 5 -6 61 -108 125
-228z m-2411 -181 c-12 -26 -34 -46 -73 -68 -138 -79 -327 -333 -419 -563 -67
-169 -136 -431 -167 -640 l-7 -50 -15 45 c-11 32 -16 88 -16 195 0 137 2 161
32 276 18 69 44 154 58 189 99 244 268 481 399 559 55 34 216 103 223 97 1 -2
-5 -20 -15 -40z m91 10 c24 -10 55 -16 78 -14 22 2 38 -1 38 -7 0 -5 -11 -50
-24 -100 -21 -84 -24 -90 -47 -87 -83 9 -159 50 -159 84 0 28 57 151 67 146 5
-2 26 -12 47 -22z m3188 -721 c44 -93 118 -249 164 -345 l85 -175 -91 90
c-151 149 -519 565 -520 587 0 10 62 15 179 14 l104 -1 79 -170z m63 66 c146
-225 298 -512 370 -699 31 -79 28 -91 -23 -107 -20 -6 -25 0 -49 51 -22 48
-24 62 -15 86 6 16 6 28 1 28 -5 0 -9 -4 -9 -10 0 -42 -45 38 -206 365 -101
206 -184 377 -184 380 0 3 11 5 25 5 21 0 36 -17 90 -99z m1063 -448 c21 -40
42 -168 42 -254 0 -118 -36 -298 -97 -480 -25 -77 -51 -146 -57 -155 -8 -11
-10 40 -7 198 2 117 -2 304 -9 414 -14 228 -14 228 58 271 45 28 58 29 70 6z
m-886 -150 c48 -51 64 -83 47 -94 -8 -4 -24 0 -41 12 -15 11 -48 29 -74 41
l-48 21 35 28 c19 16 36 29 39 29 3 0 22 -17 42 -37z m83 -133 c3 -5 2 -10 -4
-10 -5 0 -13 5 -16 10 -3 6 -2 10 4 10 5 0 13 -4 16 -10z m165 -136 c0 -24
-33 -58 -51 -52 -7 2 -18 20 -24 39 -12 32 -11 35 19 61 l31 27 12 -27 c7 -15
12 -36 13 -48z m-2774 -429 c4 -8 3 -26 0 -40 -5 -18 -13 -25 -31 -25 -22 0
-25 4 -25 40 0 36 2 40 25 40 14 0 28 -7 31 -15z m244 -890 c293 -368 383
-445 664 -565 l131 -56 37 -110 c52 -155 78 -271 85 -382 l5 -97 -88 -67 c-87
-65 -218 -137 -229 -126 -3 3 10 38 30 79 46 98 116 372 118 464 1 61 -19 182
-29 172 -2 -2 4 -38 12 -80 15 -74 15 -83 -5 -180 -11 -56 -29 -129 -40 -162
l-19 -60 -1 112 c-1 121 -18 227 -51 313 -11 30 -18 44 -15 30 40 -181 47
-235 49 -380 l1 -155 -43 -89 c-27 -54 -57 -140 -77 -220 -32 -125 -93 -311
-101 -304 -2 2 3 40 11 83 30 168 14 319 -48 441 -19 38 -58 128 -87 199 -52
129 -175 385 -185 385 -3 0 13 -37 36 -81 47 -95 113 -243 123 -279 13 -44
-304 472 -504 820 -106 184 -195 340 -197 345 -3 6 17 -15 44 -45 136 -155
288 -312 411 -425 75 -70 161 -152 190 -183 156 -167 287 -447 326 -697 7 -49
14 -79 15 -65 2 57 -31 229 -63 325 -40 118 -112 268 -164 338 -19 27 -84 106
-143 175 -60 70 -133 160 -163 202 -64 89 -192 318 -182 327 3 4 21 -7 39 -24
43 -41 126 -103 138 -103 19 0 7 24 -74 143 -138 201 -128 197 43 -18z m2244
-341 c-19 -93 -44 -230 -54 -305 -20 -150 -16 -142 -145 -364 -124 -215 -171
-317 -210 -460 -41 -152 -51 -245 -36 -345 12 -75 52 -180 77 -201 23 -19 17
-27 -38 -55 -59 -29 -95 -59 -109 -89 -7 -13 -2 -11 13 7 24 28 133 98 153 98
18 0 123 -85 190 -154 65 -67 112 -91 228 -116 35 -8 57 -18 57 -27 0 -15 -96
-402 -135 -548 -35 -127 -104 -305 -164 -421 -54 -106 -152 -238 -159 -213
-30 115 -52 129 -202 129 -114 0 -130 -8 -151 -79 -9 -29 -22 -47 -46 -61 -42
-25 -43 -24 -148 90 -171 186 -464 609 -564 813 -92 187 -179 459 -241 754
-33 156 -35 177 -19 168 6 -5 6 0 -1 12 -10 15 -8 40 8 118 30 145 31 147 98
174 80 32 135 64 199 117 30 24 60 45 66 46 12 3 14 -211 4 -292 -4 -29 -3
-31 4 -10 18 56 34 267 28 386 -7 141 -24 231 -73 397 -20 66 -34 121 -31 123
2 2 67 -20 143 -50 224 -87 424 -148 463 -142 43 7 312 186 442 295 53 44 161
147 240 230 79 82 145 148 146 147 2 -1 -13 -79 -33 -172z m-2411 -98 c88
-156 100 -183 122 -282 33 -142 42 -311 22 -419 -15 -83 -63 -217 -96 -271
l-19 -31 -84 18 c-155 34 -300 51 -385 46 -46 -3 -83 -3 -83 -1 0 1 34 28 75
59 148 112 290 308 351 485 15 44 19 83 18 200 0 127 -15 299 -30 353 -15 50
21 -1 109 -157z m2876 -1 c-64 -312 -73 -385 -72 -570 2 -260 32 -389 117
-502 66 -87 242 -232 447 -369 217 -144 272 -197 318 -307 56 -136 58 -245 6
-383 -49 -130 -140 -246 -259 -332 l-46 -33 0 61 c0 134 -71 320 -155 403 -66
66 -363 218 -398 203 -7 -3 -6 -5 3 -5 9 -1 47 -16 85 -34 112 -54 155 -118
155 -232 0 -70 -17 -93 -26 -36 -11 71 -60 130 -141 173 -72 37 -121 50 -343
89 -69 12 -149 31 -179 42 -116 43 -200 164 -209 302 -6 89 7 162 55 308 62
194 61 191 368 664 127 194 162 269 206 444 25 101 73 219 84 207 1 -2 -6 -43
-16 -93z m-2604 -478 c41 -81 84 -179 96 -218 12 -38 23 -68 25 -66 5 5 -31
123 -57 185 -26 63 -6 37 82 -110 48 -80 84 -155 108 -226 35 -105 36 -110 36
-267 0 -138 -3 -168 -21 -215 -35 -93 -36 -97 -2 -30 31 63 32 71 36 210 3
106 0 162 -11 210 -9 36 -14 67 -12 68 2 2 14 -29 27 -69 19 -62 23 -95 22
-199 -2 -209 -40 -331 -152 -478 -32 -42 -88 -117 -123 -167 -36 -49 -95 -130
-131 -180 -98 -136 -122 -173 -166 -260 -89 -178 -123 -403 -75 -498 8 -16 12
-31 9 -34 -16 -16 -312 290 -424 439 -90 120 -115 178 -120 283 -5 108 10 160
95 329 73 145 104 190 281 403 174 210 208 256 255 343 127 232 156 415 103
665 -14 66 -26 125 -26 130 1 19 71 -101 145 -248z m2826 -1475 c144 -92 230
-231 260 -421 19 -122 4 -147 -167 -283 -80 -63 -137 -145 -174 -246 -20 -56
-22 -74 -17 -175 6 -121 36 -256 66 -297 10 -14 42 -34 74 -45 30 -11 58 -23
62 -27 10 -9 -99 -59 -142 -65 -134 -18 -329 212 -379 447 -24 112 -15 355 15
428 34 84 94 164 178 239 108 95 143 132 183 194 31 48 34 61 33 117 -1 45 -8
78 -26 113 -13 27 -21 49 -17 49 3 0 26 -13 51 -28z m-2858 -194 c5 -137 22
-210 71 -313 48 -101 86 -147 173 -212 253 -187 358 -295 425 -439 44 -94 51
-205 18 -282 -24 -55 -105 -139 -164 -169 -50 -25 -157 -107 -208 -160 -56
-57 -72 -92 -88 -196 -7 -42 -17 -77 -22 -77 -22 0 -92 44 -127 80 -55 57 -76
105 -76 170 1 93 77 200 204 284 78 52 101 76 130 133 22 45 27 107 12 161 -5
17 -6 32 -2 32 5 0 27 -21 50 -46 45 -48 80 -113 82 -154 1 -17 3 -20 6 -7 9
33 -27 111 -70 157 -135 141 -214 188 -357 211 -68 12 -73 14 -121 68 -59 66
-85 130 -100 250 -12 97 -2 212 27 293 8 23 12 43 10 45 -8 8 -36 -94 -48
-174 -23 -162 17 -331 99 -415 20 -21 34 -40 30 -44 -3 -3 -28 -1 -56 6 -64
15 -122 65 -152 132 -50 110 -21 336 64 508 43 88 165 280 178 280 3 0 9 -55
12 -122z m427 -33 c0 -5 -5 -3 -10 5 -5 8 -10 20 -10 25 0 6 5 3 10 -5 5 -8
10 -19 10 -25z m-722 -648 c100 -80 101 -82 55 -106 -22 -11 -45 -27 -52 -35
-8 -9 -17 -16 -21 -16 -4 0 -17 35 -28 78 -32 117 -35 132 -28 132 4 0 37 -24
74 -53z m2047 -172 c44 -18 53 -40 67 -172 9 -86 8 -123 -6 -217 -17 -122 -37
-189 -63 -218 -22 -24 -193 -27 -213 -3 -36 43 -60 312 -41 464 13 100 30 147
58 154 42 11 166 6 198 -8z m-283 -242 c-2 -76 1 -174 7 -218 9 -74 7 -92 -24
-240 -42 -202 -55 -316 -55 -501 l0 -146 -65 7 c-107 11 -266 51 -340 84 -159
72 -435 285 -435 335 0 56 250 327 470 507 132 108 412 307 435 308 6 1 9 -49
7 -136z"/>
<path d="M5765 8754 c-11 -8 -46 -24 -78 -36 -31 -11 -56 -22 -55 -24 11 -10
101 22 129 46 36 31 38 40 4 14z"/>
<path d="M4159 6356 c-56 -44 -136 -132 -127 -141 6 -6 194 172 188 178 -3 4
-31 -13 -61 -37z"/>
<path d="M2976 6132 c18 -16 173 -112 180 -112 16 0 -53 63 -91 82 -43 23
-104 43 -89 30z"/>
<path d="M2725 5914 c-25 -142 -12 -255 39 -359 62 -125 146 -190 248 -190 49
0 61 4 88 30 69 65 93 169 71 301 -10 61 -60 219 -66 212 -2 -2 8 -50 21 -108
57 -250 11 -410 -117 -410 -87 0 -165 62 -222 175 -39 78 -50 157 -45 315 2
77 4 140 3 140 -1 0 -10 -48 -20 -106z"/>
<path d="M3530 5899 c0 -3 20 -62 45 -131 61 -175 78 -273 77 -443 0 -105 3
-146 13 -162 18 -27 73 -68 104 -78 18 -6 15 1 -18 31 -23 20 -47 47 -54 58
-7 13 -12 70 -13 141 0 73 -8 152 -18 200 -21 93 -136 419 -136 384z"/>
<path d="M4795 5645 c-73 -46 -186 -75 -293 -76 l-97 -1 60 -10 c116 -18 223
7 335 77 30 19 51 35 45 34 -5 0 -28 -11 -50 -24z"/>
<path d="M3046 5300 c-51 -25 -88 -34 -221 -54 -16 -3 8 -3 55 -1 74 2 95 8
163 40 70 33 91 46 70 44 -5 0 -34 -13 -67 -29z"/>
<path d="M3930 5135 c-11 -13 -10 -14 4 -9 9 3 16 10 16 15 0 13 -6 11 -20 -6z"/>
<path d="M4454 4869 c-74 -84 -292 -205 -428 -239 -118 -30 -264 -24 -401 16
-13 4 -16 3 -10 -3 6 -6 39 -18 75 -29 99 -28 281 -26 380 4 143 45 290 133
385 231 21 23 34 41 29 41 -6 0 -19 -10 -30 -21z"/>
<path d="M4050 4470 c-20 -6 -21 -8 -5 -8 11 0 29 3 40 8 25 11 -1 11 -35 0z"/>
<path d="M2720 4170 c6 -11 13 -20 16 -20 2 0 0 9 -6 20 -6 11 -13 20 -16 20
-2 0 0 -9 6 -20z"/>
<path d="M3434 3990 c0 -103 -3 -124 -31 -205 -17 -49 -30 -91 -28 -93 2 -2
18 34 36 80 36 92 47 184 31 278 -7 48 -8 41 -8 -60z"/>
<path d="M3185 3133 c38 -59 106 -142 137 -168 51 -43 124 -71 311 -120 145
-38 181 -52 231 -86 33 -22 54 -33 46 -24 -35 42 -101 75 -201 100 -155 39
-268 74 -319 100 -49 25 -140 115 -185 183 -15 23 -30 42 -32 42 -3 0 3 -12
12 -27z"/>
<path d="M4691 3102 c-1 -33 36 -139 70 -199 41 -72 108 -144 160 -171 24 -12
35 -17 24 -10 -11 7 -48 40 -83 73 -69 64 -129 171 -156 275 -8 30 -15 45 -15
32z"/>
<path d="M4267 1210 c3 -52 9 -120 13 -150 l8 -55 0 75 c0 41 -5 109 -12 150
l-14 75 5 -95z"/>
<path d="M4362 1180 c0 -41 3 -97 8 -125 7 -47 7 -45 8 30 0 44 -3 100 -7 125
-8 41 -9 39 -9 -30z"/>
<path d="M3977 1076 c-127 -145 -215 -287 -242 -391 -23 -89 -18 -99 10 -20
14 39 39 97 56 130 33 64 156 242 216 313 19 23 33 42 30 42 -3 0 -34 -33 -70
-74z"/>
<path d="M3942 817 c-33 -67 -81 -154 -107 -192 -59 -88 -57 -85 -52 -85 15 0
114 152 151 232 93 199 99 229 8 45z"/>
<path d="M3712 570 c0 -14 2 -19 5 -12 2 6 2 18 0 25 -3 6 -5 1 -5 -13z"/>
<path d="M6126 8870 c-38 -16 -74 -35 -80 -40 -6 -6 12 -2 39 10 76 33 199 46
291 32 104 -16 153 -40 249 -122 88 -75 113 -108 73 -96 -144 42 -349 45 -458
8 -77 -27 -161 -64 -156 -69 2 -2 21 3 42 12 81 35 143 47 284 52 172 6 241
-7 368 -68 182 -88 346 -306 432 -574 50 -157 69 -250 81 -390 12 -153 7 -203
-76 -745 -95 -621 -99 -654 -99 -945 -1 -295 4 -329 74 -471 63 -129 151 -201
515 -419 231 -139 257 -158 395 -301 169 -175 209 -271 197 -472 -7 -117 -26
-190 -77 -299 -80 -172 -128 -214 -396 -349 -102 -52 -205 -108 -230 -124 -52
-37 -96 -107 -125 -203 -28 -91 -24 -237 10 -313 36 -82 145 -173 326 -274
166 -92 269 -156 290 -182 52 -62 55 -150 9 -246 -46 -95 -261 -272 -446 -367
-114 -59 -246 -144 -273 -175 -13 -16 -5 -12 25 11 64 50 110 78 251 154 227
123 418 276 468 376 52 104 39 222 -31 285 -12 12 -97 63 -188 115 -284 160
-367 225 -412 324 -32 70 -32 224 1 308 12 31 25 57 29 57 3 0 43 -22 87 -49
44 -27 118 -61 165 -76 238 -74 281 -90 360 -127 70 -34 101 -56 176 -132 150
-150 208 -286 208 -486 0 -89 -5 -118 -28 -185 -51 -148 -123 -234 -256 -306
-68 -37 -213 -129 -262 -166 -110 -84 -166 -242 -156 -441 6 -117 35 -192 101
-260 84 -87 149 -119 292 -142 86 -14 135 -35 200 -87 106 -84 138 -208 96
-373 -48 -191 -156 -348 -331 -482 -38 -29 -67 -54 -65 -57 3 -2 44 22 91 54
204 139 345 386 347 610 2 117 -22 173 -103 249 -75 69 -124 92 -247 115 -133
26 -164 40 -232 108 -94 94 -133 239 -111 405 29 206 61 247 325 403 221 130
281 196 341 370 23 67 28 97 28 185 1 126 -13 187 -66 300 -35 72 -56 100
-139 182 -85 85 -110 103 -201 147 -62 30 -168 69 -268 98 -133 38 -182 58
-250 99 -47 28 -87 59 -88 69 -8 36 81 100 260 188 95 47 200 103 233 125 84
54 148 129 200 236 66 133 88 225 88 371 1 193 -40 280 -211 457 -124 127
-168 161 -423 313 -376 226 -452 297 -515 480 -27 77 -28 90 -32 314 -3 143 0
278 8 345 13 128 72 534 127 876 33 210 37 255 37 425 1 214 -8 271 -76 485
-91 284 -243 492 -438 599 -35 19 -69 50 -102 92 -112 145 -199 190 -383 196
-116 4 -123 3 -189 -27z"/>
<path d="M5205 8645 c50 -7 124 -21 165 -29 105 -22 110 -18 12 9 -45 13 -124
26 -175 29 l-92 5 90 -14z"/>
<path d="M6197 8569 c7 -7 15 -10 18 -7 3 3 -2 9 -12 12 -14 6 -15 5 -6 -5z"/>
<path d="M6309 8514 c259 -138 349 -258 426 -563 98 -388 75 -726 -75 -1095
-63 -156 -185 -510 -209 -606 -24 -96 -30 -138 -41 -301 -25 -377 67 -659 301
-919 22 -25 5 2 -39 60 -136 183 -188 289 -225 460 -26 121 -28 390 -3 553 24
152 105 404 241 747 132 330 173 634 125 916 -56 326 -155 536 -308 647 -49
36 -252 147 -268 147 -5 0 29 -21 75 -46z"/>
<path d="M5440 8349 c-36 -11 -99 -25 -140 -33 -41 -8 -64 -14 -50 -15 50 -1
156 19 220 43 77 29 62 32 -30 5z"/>
<path d="M1458 8263 c6 -2 18 -2 25 0 6 3 1 5 -13 5 -14 0 -19 -2 -12 -5z"/>
<path d="M5713 8123 c-15 -132 -42 -238 -94 -363 -22 -52 -35 -90 -30 -85 21
23 104 235 116 300 14 73 31 255 23 255 -2 0 -9 -48 -15 -107z"/>
<path d="M6591 8143 c-4 -209 -80 -617 -151 -818 -60 -169 -212 -464 -413
-805 -92 -155 -94 -159 -80 -145 6 6 53 82 105 170 239 401 379 667 422 803
46 147 94 424 122 706 8 82 16 73 38 -43 42 -222 2 -489 -151 -999 -68 -227
-125 -371 -276 -697 -218 -472 -221 -484 -222 -730 0 -154 4 -193 23 -270 37
-147 90 -243 190 -348 111 -114 173 -158 352 -247 181 -90 266 -140 327 -193
l48 -41 -35 38 c-41 44 -120 94 -325 206 -176 96 -225 131 -337 242 -150 149
-218 335 -218 595 0 224 21 292 248 788 132 290 172 391 238 608 154 508 203
783 170 962 -17 88 -61 264 -69 272 -3 2 -5 -22 -6 -54z"/>
<path d="M2598 7790 c-7 -24 -3 -38 8 -28 3 4 4 17 2 30 l-3 23 -7 -25z"/>
<path d="M2612 7720 c0 -14 2 -19 5 -12 2 6 2 18 0 25 -3 6 -5 1 -5 -13z"/>
<path d="M2622 7660 c0 -19 2 -27 5 -17 2 9 2 25 0 35 -3 9 -5 1 -5 -18z"/>
<path d="M5822 7610 c0 -14 2 -19 5 -12 2 6 2 18 0 25 -3 6 -5 1 -5 -13z"/>
<path d="M2632 7590 c0 -19 2 -27 5 -17 2 9 2 25 0 35 -3 9 -5 1 -5 -18z"/>
<path d="M5810 7566 c0 -28 -70 -237 -106 -315 -19 -41 -33 -76 -31 -78 2 -2
27 45 54 104 48 102 103 286 89 300 -3 4 -6 -1 -6 -11z"/>
<path d="M5876 7463 c-8 -84 -45 -225 -81 -314 -14 -34 -23 -64 -21 -66 4 -5
56 118 80 190 17 51 41 227 34 249 -3 7 -8 -19 -12 -59z"/>
<path d="M5932 7470 c0 -14 2 -19 5 -12 2 6 2 18 0 25 -3 6 -5 1 -5 -13z"/>
<path d="M1626 7444 c-4 -20 -5 -38 -3 -40 3 -3 8 11 11 32 4 20 5 38 3 40 -3
3 -8 -11 -11 -32z"/>
<path d="M5936 7353 c-15 -180 -50 -310 -125 -463 -23 -47 -35 -76 -26 -65 34
42 116 224 136 300 18 73 39 315 27 315 -3 0 -8 -39 -12 -87z"/>
<path d="M1713 7240 c0 -41 2 -58 4 -37 2 20 2 54 0 75 -2 20 -4 3 -4 -38z"/>
<path d="M1029 7229 c-124 -213 -189 -455 -189 -705 0 -101 5 -141 30 -241 73
-295 200 -601 337 -808 100 -151 311 -401 495 -585 154 -155 179 -184 211
-250 89 -186 98 -388 26 -533 -17 -34 -56 -96 -87 -137 -30 -41 -45 -66 -33
-55 38 33 137 189 157 246 15 43 19 83 19 194 0 127 -3 148 -28 220 -41 116
-80 168 -261 349 -167 165 -388 428 -481 571 -126 193 -252 494 -322 770 -38
149 -43 360 -14 514 29 149 90 333 145 438 25 45 43 83 41 83 -2 0 -23 -32
-46 -71z"/>
<path d="M2991 7173 c-2 -23 67 -220 109 -313 86 -191 284 -509 420 -675 32
-38 106 -119 165 -180 59 -60 97 -97 84 -80 -13 16 -67 75 -119 130 -149 157
-291 355 -435 607 -80 140 -135 263 -186 413 -21 61 -38 105 -38 98z"/>
<path d="M5474 7030 c20 -103 38 -236 46 -334 l9 -111 -4 125 c-3 111 -37 336
-52 350 -3 3 -3 -11 1 -30z"/>
<path d="M5872 6530 c0 -14 2 -19 5 -12 2 6 2 18 0 25 -3 6 -5 1 -5 -13z"/>
<path d="M843 6255 c0 -22 2 -30 4 -17 2 12 2 30 0 40 -3 9 -5 -1 -4 -23z"/>
<path d="M851 6172 c-2 -73 60 -311 135 -520 96 -268 195 -433 365 -612 76
-80 54 -49 -50 70 -86 99 -131 170 -206 325 -102 210 -201 504 -230 685 -7 47
-13 70 -14 52z"/>
<path d="M1640 4700 c141 -198 180 -291 180 -433 0 -155 -53 -344 -126 -444
-34 -46 -34 -47 -4 -13 71 78 138 274 147 432 5 86 3 106 -20 181 -26 83 -93
191 -178 287 l-31 35 32 -45z"/>
<path d="M7258 4457 c184 -202 259 -387 269 -667 7 -180 -9 -274 -66 -395 -22
-47 -38 -85 -35 -85 10 0 85 168 100 221 33 124 28 354 -12 514 -35 140 -140
311 -260 425 l-58 55 62 -68z"/>
<path d="M6940 4445 c0 -5 5 -17 10 -25 5 -8 10 -10 10 -5 0 6 -5 17 -10 25
-5 8 -10 11 -10 5z"/>
<path d="M6839 4371 c12 -23 28 -65 36 -94 l15 -52 -5 45 c-6 44 -41 126 -58
137 -5 3 1 -13 12 -36z"/>
<path d="M6966 4380 c29 -120 3 -338 -55 -454 -52 -105 -180 -264 -309 -386
-67 -63 -124 -121 -127 -129 -3 -9 25 14 63 49 37 36 103 96 147 135 86 76
208 232 249 319 41 87 59 178 58 301 0 77 -5 122 -16 150 -9 22 -14 29 -10 15z"/>
<path d="M6893 4155 c0 -38 2 -53 4 -32 2 20 2 52 0 70 -2 17 -4 1 -4 -38z"/>
<path d="M1336 2952 c-43 -88 -57 -148 -63 -262 -8 -155 8 -212 75 -270 74
-66 91 -68 25 -4 -46 46 -62 70 -71 106 -26 104 -7 313 38 414 24 56 21 69 -4
16z"/>
<path d="M1201 2931 c-11 -15 -61 -95 -111 -177 -177 -291 -261 -588 -216
-764 19 -72 72 -194 92 -211 7 -6 -1 14 -17 45 -125 231 -50 606 204 1014 72
116 93 156 48 93z"/>
<path d="M8221 2612 c93 -65 153 -192 153 -327 0 -73 -22 -134 -67 -182 -11
-13 -18 -25 -15 -28 11 -11 78 102 89 152 31 134 -50 331 -165 402 -56 35 -53
23 5 -17z"/>
<path d="M1081 2368 c-29 -98 -28 -199 3 -320 28 -110 71 -201 116 -245 31
-30 167 -109 175 -101 2 2 -20 16 -50 31 -120 63 -178 145 -219 309 -37 145
-41 219 -16 312 26 100 20 110 -9 14z"/>
<path d="M5039 2003 c-50 -147 -146 -348 -249 -523 -39 -67 -70 -123 -68 -126
6 -5 165 270 221 381 43 86 152 384 143 392 -2 2 -23 -54 -47 -124z"/>
<path d="M3215 1690 c18 -34 138 -170 204 -232 56 -53 96 -79 203 -132 73 -36
138 -66 143 -66 6 0 -37 24 -95 53 -58 29 -127 68 -155 87 -51 35 -216 194
-275 265 -18 22 -29 33 -25 25z"/>
<path d="M853 1613 c24 -4 26 -8 21 -31 -17 -72 -69 -152 -169 -262 -127 -139
-191 -228 -238 -336 -103 -235 -112 -396 -30 -546 35 -64 152 -175 229 -215
72 -38 154 -57 319 -73 124 -12 223 -39 318 -86 29 -14 48 -22 42 -16 -5 5
-55 33 -110 61 -98 50 -103 52 -261 71 -201 25 -244 38 -338 101 -90 60 -139
113 -177 195 -60 126 -60 236 2 411 59 167 105 238 272 426 53 59 103 120 111
135 20 39 48 151 41 162 -3 6 -18 9 -33 9 l-27 -2 28 -4z"/>
<path d="M4990 1493 c-25 -19 -80 -55 -123 -80 -43 -25 -76 -48 -73 -50 8 -8
159 86 207 128 55 48 49 49 -11 2z"/>
<path d="M1303 1343 c57 -79 81 -164 75 -263 -4 -68 -6 -74 -41 -106 -40 -37
-41 -43 -1 -18 32 22 44 44 54 107 17 112 -15 214 -95 302 -33 37 -32 35 8
-22z"/>
<path d="M3564 1180 c22 -4 62 -4 90 0 45 7 39 8 -39 8 -68 0 -81 -2 -51 -8z"/>
<path d="M4610 1105 c0 -8 157 -84 268 -131 56 -23 102 -40 102 -38 0 6 -248
126 -320 154 -27 11 -50 18 -50 15z"/>
<path d="M4762 934 c115 -117 183 -198 237 -282 38 -59 54 -71 20 -14 -85 140
-176 247 -304 355 -42 35 -28 18 47 -59z"/>
<path d="M7119 743 c33 -65 76 -108 175 -176 216 -146 330 -327 298 -471 -6
-28 -14 -61 -18 -73 -13 -44 14 -22 36 29 49 114 2 263 -124 392 -38 39 -106
90 -180 136 -104 64 -123 80 -157 133 -49 76 -58 84 -30 30z"/>
</g>
</svg>
